<?xml version="1.0" encoding="UTF-8"?>
<svg version="1.1" xmlns="http://www.w3.org/2000/svg" width="555" height="525">
<path d="M0 0 C4.83834835 2.41917417 7.25164741 4.85778651 9 10 C9.20551884 14.72693327 7.43142245 16.84377384 4.375 20.1875 C3.72273438 20.84105469 3.07046875 21.49460937 2.3984375 22.16796875 C1.93695313 22.77253906 1.47546875 23.37710938 1 24 C1.65746431 27.06241566 1.65746431 27.06241566 3.80322266 28.0715332 C4.5822998 28.39468506 5.36137695 28.71783691 6.1640625 29.05078125 C7.03192383 29.41647217 7.89978516 29.78216309 8.79394531 30.15893555 C10.19531738 30.72994995 10.19531738 30.72994995 11.625 31.3125 C12.5747168 31.71057861 13.52443359 32.10865723 14.50292969 32.51879883 C19.43555775 34.57627868 24.39425097 36.55263825 29.3840332 38.46655273 C40.90536835 42.91801194 47.80532912 47.93870245 55 58 C55.763125 59.04671875 56.52625 60.0934375 57.3125 61.171875 C63.01923375 69.29604458 63.01923375 69.29604458 62.94140625 72.14453125 C61.75939707 74.47421739 60.40514009 75.67035965 58.375 77.3125 C55.49222856 79.70019799 52.86758382 82.14021798 50.3125 84.875 C48.21484108 86.99655025 47.05808645 87.97623736 44.25 89.125 C42 89 42 89 39 86 C38.67 109.76 38.34 133.52 38 158 C17.8252689 158.04010881 17.8252689 158.04010881 9.25585938 158.04882812 C3.39802144 158.05481657 -2.45980093 158.06191689 -8.31762695 158.07543945 C-13.03787978 158.08626834 -17.75811592 158.09227684 -22.4783802 158.09487724 C-24.28338954 158.09673149 -26.08839792 158.10035209 -27.89340019 158.10573006 C-30.41259644 158.11294052 -32.9317229 158.11399094 -35.45092773 158.11352539 C-36.58164955 158.1189183 -36.58164955 158.1189183 -37.73521423 158.12442017 C-42.88594784 158.11405216 -42.88594784 158.11405216 -44 157 C-44.12406815 154.79205589 -44.17802278 152.58015514 -44.20532227 150.36889648 C-44.21522186 149.67624695 -44.22512146 148.98359741 -44.23532104 148.2699585 C-44.2670203 145.97037221 -44.29172651 143.67076523 -44.31640625 141.37109375 C-44.33696852 139.78067982 -44.35796479 138.19027145 -44.37937927 136.59986877 C-44.43467509 132.40610237 -44.4840511 128.21228605 -44.53222656 124.01843262 C-44.58238691 119.74206072 -44.63810144 115.46576166 -44.69335938 111.18945312 C-44.80103274 102.79303027 -44.90245716 94.39654662 -45 86 C-46.32 87.32 -47.64 88.64 -49 90 C-53.69550517 87.87308683 -56.96888476 84.56174879 -60.6875 81.0625 C-61.37650391 80.42892578 -62.06550781 79.79535156 -62.77539062 79.14257812 C-63.75862305 78.2231543 -63.75862305 78.2231543 -64.76171875 77.28515625 C-65.35944092 76.72707275 -65.95716309 76.16898926 -66.57299805 75.59399414 C-68 74 -68 74 -69 71 C-67.60747353 68.51871634 -66.18576518 66.26084501 -64.5625 63.9375 C-64.09730957 63.2664624 -63.63211914 62.5954248 -63.15283203 61.90405273 C-62.20937306 60.55299228 -61.26051949 59.20568197 -60.30615234 57.86230469 C-59.20399885 56.29086041 -58.15252771 54.68404923 -57.11328125 53.0703125 C-48.473178 40.60526466 -31.74984323 36.57024875 -18.08935547 31.77490234 C-16.06245112 31.02316194 -14.10150885 30.18398215 -12.12890625 29.30078125 C-9 28 -9 28 -6 28 C-5.95875 26.989375 -5.9175 25.97875 -5.875 24.9375 C-5.4290527 21.52771832 -4.30517919 19.95681535 -1.9375 17.5 C0.74165169 14.68017687 0.97936862 14.21662951 1.375 10.0625 C1.25125 9.051875 1.1275 8.04125 1 7 C-2.28926495 6.49803706 -2.28926495 6.49803706 -6 7 C-8.1403498 8.81188028 -9.38988302 10.65801167 -11 13 C-12.32 12.67 -13.64 12.34 -15 12 C-14.63166144 5.61546499 -14.63166144 5.61546499 -11.5625 2.625 C-7.39221758 -0.01956934 -5.00807147 -0.41733929 0 0 Z M-15.9375 37 C-16.81212891 37.3815625 -17.68675781 37.763125 -18.58789062 38.15625 C-20.73052532 39.09292091 -22.86731421 40.040945 -25 41 C-24.67 42.32 -24.34 43.64 -24 45 C-10.14 45 3.72 45 18 45 C17.505 42.525 17.505 42.525 17 40 C14.41287093 38.44108889 12.14276148 37.3049652 9.375 36.1875 C8.67503906 35.87619141 7.97507812 35.56488281 7.25390625 35.24414062 C-1.52543485 31.53857458 -7.53659458 33.21799543 -15.9375 37 Z M-49.23046875 52.89453125 C-50.97277682 54.85213597 -52.49300677 56.85646509 -54 59 C-54.66128906 59.85464844 -55.32257813 60.70929688 -56.00390625 61.58984375 C-59.64945905 65.86027633 -59.64945905 65.86027633 -60.9296875 71.03515625 C-59.71799459 73.59600304 -58.14997606 75.21073765 -56.125 77.1875 C-55.42632812 77.88230469 -54.72765625 78.57710937 -54.0078125 79.29296875 C-52.01515261 81.20248893 -52.01515261 81.20248893 -49 82 C-43.64466943 77.77210744 -42.8622489 73.62773407 -42 67 C-41.01 66.67 -40.02 66.34 -39 66 C-38.03643549 69.22828129 -37.88937375 72.10906533 -37.91821289 75.47119141 C-37.9247438 76.56557526 -37.93127472 77.65995911 -37.93800354 78.7875061 C-37.94943893 79.96364471 -37.96087433 81.13978333 -37.97265625 82.3515625 C-37.98529651 84.83593614 -37.9976579 87.32031121 -38.00976562 89.8046875 C-38.03465341 93.72660761 -38.06269884 97.64845401 -38.09594727 101.5703125 C-38.12602112 105.3515675 -38.14388034 109.13272659 -38.16015625 112.9140625 C-38.17361588 114.09424957 -38.1870755 115.27443665 -38.20094299 116.49038696 C-38.20432175 117.57846649 -38.2077005 118.66654602 -38.21118164 119.78759766 C-38.21863907 120.74816071 -38.2260965 121.70872375 -38.23377991 122.69839478 C-38.22500576 125.19634903 -38.22500576 125.19634903 -36 127 C-35.01 126.01 -35.01 126.01 -34 125 C-31.8359375 124.5859375 -31.8359375 124.5859375 -29.375 124.375 C-28.14910156 124.26285156 -28.14910156 124.26285156 -26.8984375 124.1484375 C-26.27195312 124.09945312 -25.64546875 124.05046875 -25 124 C-25.91184543 121.6443993 -26.81388514 119.34168416 -28.0234375 117.12109375 C-31.86155456 109.73067685 -32.2406463 102.27825259 -30.33984375 94.19140625 C-27.64644813 86.53096936 -22.98877097 81.36681726 -15.8125 77.625 C-8.60451961 74.24855297 -0.87513661 73.90382964 6.75 76.1875 C10.95009787 77.73373072 13.70012267 80.02206192 17 83 C17.66 83 18.32 83 19 83 C19.2475 83.66 19.495 84.32 19.75 85 C20.84006954 87.838738 20.84006954 87.838738 22.0234375 89.65625 C26.15074006 96.56435925 26.21325248 104.09246189 24.3046875 111.8125 C21.48391875 119.58739203 17.43731338 124.9384632 10.125 128.875 C1.75143432 132.65620775 -5.14663624 132.35081553 -14 130 C-15.0828125 129.45666016 -15.0828125 129.45666016 -16.1875 128.90234375 C-18.00747222 127.77509241 -18.00747222 127.77509241 -20.25 128.375 C-21.11625 128.684375 -21.11625 128.684375 -22 129 C-21.690625 129.804375 -21.38125 130.60875 -21.0625 131.4375 C-20.96420439 137.04035002 -24.41639407 139.94560662 -28 144 C-31.85254571 147.7330715 -31.85254571 147.7330715 -34 152 C-12.22 152 9.56 152 32 152 C32.06058594 146.04324219 32.12117188 140.08648437 32.18359375 133.94921875 C32.22407843 130.18033114 32.26484674 126.41145089 32.30664062 122.64257812 C32.37298161 116.65765864 32.43826002 110.67274054 32.49731445 104.68774414 C32.54497937 99.86368988 32.59732306 95.03970719 32.65294075 90.2157383 C32.67335464 88.37332753 32.69206932 86.53089715 32.70907402 84.68845177 C32.73313934 82.11213449 32.76319108 79.53595255 32.79467773 76.9597168 C32.8004332 76.19439133 32.80618866 75.42906586 32.81211853 74.64054871 C32.85586803 71.50084674 32.99976381 69.00070856 34 66 C34.66 66 35.32 66 36 66 C36.08636719 66.65226562 36.17273438 67.30453125 36.26171875 67.9765625 C37.25358851 74.14617438 38.57066275 77.57066275 43 82 C46.68069887 80.46356148 48.98775204 78.21849055 51.75 75.375 C52.54921875 74.55773437 53.3484375 73.74046875 54.171875 72.8984375 C54.77515625 72.27195312 55.3784375 71.64546875 56 71 C49.93869693 60.74840703 43.56586139 50.35301567 32 46 C31.071875 45.5875 30.14375 45.175 29.1875 44.75 C26.91244369 43.83783784 26.91244369 43.83783784 24 44 C22.54397871 46.03336 22.54397871 46.03336 21.25 48.625 C17.42837802 55.27989345 12.8109208 60.14348083 5.3515625 62.51953125 C-3.66989872 64.36278662 -11.25480385 63.46653932 -19.32421875 58.98828125 C-24.46535954 55.16807591 -27.98069442 50.05791675 -30 44 C-36.53262601 44 -44.29633475 48.70354178 -49.23046875 52.89453125 Z M-19 51 C-13.9206265 56.0793735 -10.18744862 57.64012677 -3.125 58.4375 C1.88524761 58.23868065 6.64549572 56.42006836 11 54 C11.66 53.01 12.32 52.02 13 51 C2.44 51 -8.12 51 -19 51 Z M-21.81640625 89.08203125 C-25.26337951 94.66772059 -27.05172746 100.38741469 -26 107 C-24.07314571 114.69529859 -20.57895432 119.58398957 -14 124 C-8.01092439 127.06108309 -0.66481598 127.08314504 5.72265625 125.1953125 C12.21520458 122.35543465 15.92023443 118.35272677 19 112 C21.24688884 104.82937327 20.33218568 98.09382483 17.32421875 91.296875 C14.09179289 85.69018944 9.11789506 82.4249059 3.02734375 80.47265625 C-6.39474753 78.27598372 -15.9423479 81.27768744 -21.81640625 89.08203125 Z M-33.73828125 130.8984375 C-37.10584062 134.04577734 -37.10584062 134.04577734 -38.16015625 138.40625 C-37.90055006 140.65379948 -37.53699669 142.80319536 -37 145 C-36.278125 144.278125 -35.55625 143.55625 -34.8125 142.8125 C-32.96801451 140.96801451 -31.07227718 139.17311662 -29.125 137.4375 C-28.42375 136.633125 -27.7225 135.82875 -27 135 C-27.04497842 132.72476911 -27.04497842 132.72476911 -28 131 C-30.90718087 129.93437476 -30.90718087 129.93437476 -33.73828125 130.8984375 Z " fill="#A4A3B8" transform="translate(285,21)"/>
<path d="M0 0 C9.18216898 7.81725197 16.88269003 18.69054057 18.3125 30.96875 C19.34713917 44.30618949 15.99537118 57.19187701 7.5 67.71875 C-1.50342633 77.47818922 -12.97048691 83.00387422 -26.1171875 84.1875 C-39.10024872 84.68525315 -50.03650145 80.08856805 -59.8125 71.84375 C-69.46228092 62.79426649 -74.58939135 52.55522496 -75.08789062 39.40869141 C-75.30392387 25.56835095 -71.12883634 14.53046732 -61.94921875 3.96875 C-45.05906725 -12.23422188 -18.59519072 -14.06559298 0 0 Z M-48.8125 22.40625 C-52.37330389 28.45564545 -53.62747071 35.04081769 -52.6875 41.96875 C-50.7262401 48.38259995 -47.50151276 54.44961811 -41.7890625 58.22265625 C-35.62578907 61.41554339 -29.51507436 61.98353941 -22.6875 60.96875 C-15.77759038 58.77235116 -10.61836475 55.07121136 -6.6875 48.96875 C-3.51335953 42.76474818 -3.54114088 34.77572866 -5.52734375 28.1796875 C-8.78211391 20.92494727 -13.48885505 16.97679758 -20.5625 13.59375 C-30.98891311 11.50846738 -41.93985068 13.44545059 -48.8125 22.40625 Z " fill="#A2A2B8" transform="translate(268.6875,206.03125)"/>
<path d="M0 0 C7.21815755 6.17872434 12.94205234 15.41255176 14.97265625 24.6953125 C15.15183594 25.489375 15.33101563 26.2834375 15.515625 27.1015625 C17.73750284 39.71119398 14.57112556 51.75779859 7.66015625 62.41796875 C0.04643197 72.69297166 -10.25982194 79.77778732 -23.02734375 81.6953125 C-36.80906758 82.68858989 -47.55003304 80.76433416 -59.02734375 72.6953125 C-61.77734375 70.2578125 -61.77734375 70.2578125 -64.02734375 67.6953125 C-64.74664062 66.94507813 -64.74664062 66.94507813 -65.48046875 66.1796875 C-74.79312474 56.11449365 -77.47173135 44.7879584 -77.28515625 31.39453125 C-76.40831792 18.81322975 -69.96954352 8.01249615 -60.83984375 -0.4921875 C-42.14780295 -15.53802303 -18.63860344 -14.18938843 0 0 Z M-49.33984375 18.9453125 C-54.25881043 25.24480662 -55.97375689 31.77248249 -55.02734375 39.6953125 C-53.7231395 47.1880938 -50.10691972 52.17541832 -44.02734375 56.6953125 C-37.5345107 60.11985099 -30.57413426 60.80581894 -23.484375 59.07421875 C-15.89346046 56.49032197 -11.28082175 52.0063139 -7.58984375 44.9453125 C-6.07220512 36.17673375 -6.1329352 28.39740602 -11.28125 20.859375 C-14.76283391 16.36272439 -18.47331087 13.18048902 -24.02734375 11.6953125 C-34.25245671 10.53662563 -42.14937571 11.299973 -49.33984375 18.9453125 Z " fill="#A1A2B8" transform="translate(359.02734375,324.3046875)"/>
<path d="M0 0 C9.83378286 8.68251072 15.61718584 20.26628564 16.55859375 33.28125 C16.98385877 44.46217626 13.9124708 54.078423 7.40234375 63.12109375 C6.84933594 63.89324219 6.29632813 64.66539062 5.7265625 65.4609375 C-0.62829806 73.421523 -10.97464122 80.38759888 -21.20703125 81.94140625 C-21.9959375 82.00070312 -22.78484375 82.06 -23.59765625 82.12109375 C-25.18320313 82.24097656 -25.18320313 82.24097656 -26.80078125 82.36328125 C-40.43016267 82.87363254 -51.4070943 79.13294014 -61.71484375 70.30859375 C-70.75718708 61.84632527 -75.93303848 51.81650961 -76.87890625 39.44140625 C-77.25187118 23.99444187 -72.58463479 12.66388261 -62.0546875 1.41796875 C-44.0692815 -15.39509759 -19.05687964 -13.78399866 0 0 Z M-48.59765625 18.12109375 C-53.97703 25.68490933 -54.5834898 33.04275841 -53.59765625 42.12109375 C-52.28579012 48.43006825 -49.07736439 53.40151603 -43.98828125 57.37890625 C-37.72769249 61.2048216 -30.69378169 60.92521077 -23.59765625 60.12109375 C-17.46160962 58.48028381 -12.92406104 54.48147854 -9.59765625 49.12109375 C-6.46130348 41.41984397 -6.06071241 32.00439602 -9.09765625 24.18359375 C-12.09226556 18.49171222 -16.77386757 14.53298809 -22.47265625 11.68359375 C-31.99578685 9.96943024 -41.62020161 10.7664794 -48.59765625 18.12109375 Z " fill="#A2A2B8" transform="translate(255.59765625,323.87890625)"/>
<path d="M0 0 C0.91644287 0.00523682 1.83288574 0.01047363 2.77709961 0.01586914 C3.76645508 0.0190918 4.75581055 0.02231445 5.77514648 0.02563477 C6.81606445 0.03401367 7.85698242 0.04239258 8.92944336 0.05102539 C10.49662109 0.05779297 10.49662109 0.05779297 12.09545898 0.06469727 C14.68600996 0.07652627 17.27644895 0.0930085 19.86694336 0.11352539 C21.36677421 3.11318709 21.10596391 6.232995 21.18334961 9.52758789 C21.20413071 10.25722748 21.2249118 10.98686707 21.24632263 11.73861694 C21.31176252 14.07182302 21.37067704 16.4051426 21.42944336 18.73852539 C21.47263389 20.31926634 21.51624835 21.89999578 21.56030273 23.48071289 C21.66743817 27.35820043 21.76872118 31.23580224 21.86694336 35.11352539 C22.96860951 34.02379886 24.0685233 32.93230064 25.16772461 31.84008789 C25.78043213 31.23245605 26.39313965 30.62482422 27.02441406 29.9987793 C29.38564371 27.58279741 31.57675822 25.04294276 33.78100586 22.48461914 C36.92770049 18.90775839 40.17794582 15.42777255 43.42822266 11.94506836 C43.91460205 11.42187012 44.40098145 10.89867187 44.90209961 10.35961914 C45.39967773 9.83811279 45.89725586 9.31660645 46.40991211 8.77929688 C47.92102655 7.13322227 47.92102655 7.13322227 49.12084961 5.16845703 C51.32671982 1.92489229 52.73890711 0.33486815 56.68261719 -0.43896484 C60.06261564 -0.57577491 63.36389164 -0.49745243 66.74194336 -0.32397461 C68.48991211 -0.27660156 68.48991211 -0.27660156 70.27319336 -0.22827148 C73.14037227 -0.14601635 76.00234722 -0.03113512 78.86694336 0.11352539 C78.86694336 3.8232697 78.12940107 4.24793074 75.61303711 6.84399414 C74.57759766 7.92583984 74.57759766 7.92583984 73.52124023 9.02954102 C72.78969727 9.77913086 72.0581543 10.5287207 71.30444336 11.30102539 C69.88507749 12.77233512 68.46709993 14.24498546 67.05053711 15.71899414 C66.34977051 16.44683105 65.64900391 17.17466797 64.92700195 17.92456055 C62.34061921 20.67278378 59.88063474 23.51913063 57.4140625 26.37451172 C54.89256806 29.20875582 52.08541153 31.71475936 49.27319336 34.25415039 C47.62666768 35.97919552 47.62666768 35.97919552 48.11230469 37.98510742 C48.95503982 40.36199673 50.02870873 42.0063315 51.53491211 44.02758789 C52.09178711 44.77999756 52.64866211 45.53240723 53.22241211 46.30761719 C53.82698242 47.10981689 54.43155273 47.9120166 55.05444336 48.73852539 C55.67577148 49.57230713 56.29709961 50.40608887 56.93725586 51.26513672 C62.43081769 58.60669628 68.0495524 65.84999376 73.71069336 73.06274414 C74.76384264 74.41217332 75.81591922 75.76244035 76.86694336 77.11352539 C77.44057617 77.84780762 78.01420898 78.58208984 78.60522461 79.33862305 C79.43086914 80.41249268 79.43086914 80.41249268 80.27319336 81.50805664 C80.77141602 82.15234619 81.26963867 82.79663574 81.78295898 83.46044922 C82.86694336 85.11352539 82.86694336 85.11352539 82.86694336 87.11352539 C60.38641068 89.62558663 60.38641068 89.62558663 53.50561523 85.80102539 C49.55820929 82.30301643 46.90547027 77.97221791 44.27612305 73.44165039 C41.85048764 69.43422503 38.91793326 65.8134414 36.05444336 62.11352539 C34.31542118 59.78733221 32.59162469 57.4503909 30.86694336 55.11352539 C29.47475586 56.22727539 29.47475586 56.22727539 28.05444336 57.36352539 C27.53237305 57.78118164 27.01030273 58.19883789 26.47241211 58.62915039 C23.83232641 61.07010554 22.06354551 62.95338829 21.45043945 66.57128906 C21.43062012 67.46565674 21.41080078 68.36002441 21.39038086 69.28149414 C21.34397461 70.74425781 21.34397461 70.74425781 21.29663086 72.23657227 C21.27858398 73.2478418 21.26053711 74.25911133 21.24194336 75.30102539 C21.19117019 77.31545077 21.13668982 79.32978734 21.07788086 81.34399414 C21.06031738 82.23497803 21.04275391 83.12596191 21.0246582 84.04394531 C20.86694336 86.11352539 20.86694336 86.11352539 19.86694336 87.11352539 C18.15921978 87.20066371 16.44795687 87.22052546 14.73803711 87.21118164 C13.18632812 87.20634766 13.18632812 87.20634766 11.60327148 87.20141602 C10.5146582 87.19303711 9.42604492 87.1846582 8.30444336 87.17602539 C6.66572266 87.16925781 6.66572266 87.16925781 4.99389648 87.16235352 C2.28485841 87.15052366 -0.42407263 87.13404082 -3.13305664 87.11352539 C-3.15617933 75.91779295 -3.17397135 64.72206615 -3.18486881 53.52631474 C-3.1900978 48.32824424 -3.19719574 43.13019003 -3.20849609 37.93212891 C-3.2193244 32.92010271 -3.22533335 27.90809221 -3.22793388 22.89605522 C-3.22978824 20.97940257 -3.23340904 19.06275082 -3.2387867 17.14610481 C-3.24599639 14.47124467 -3.24704761 11.79645026 -3.24658203 9.12158203 C-3.25017731 8.32101379 -3.25377258 7.52044556 -3.25747681 6.69561768 C-3.24510866 0.17271094 -3.24510866 0.17271094 0 0 Z " fill="#A1A1B8" transform="translate(392.133056640625,315.886474609375)"/>
<path d="M0 0 C1.18802719 0.00222061 2.37605438 0.00444122 3.6000824 0.00672913 C4.58053528 0.00651009 4.58053528 0.00651009 5.58079529 0.00628662 C7.75058766 0.00698569 9.92029517 0.01477774 12.09007263 0.02259827 C13.59079949 0.02446247 15.09152696 0.02588636 16.59225464 0.02688599 C20.54934865 0.03071099 24.50640616 0.04054112 28.46348572 0.05158997 C32.49851488 0.06180446 36.53354991 0.06638369 40.56858826 0.07142639 C48.49113294 0.08216341 56.41364092 0.09976006 64.33616638 0.12025452 C64.33616638 6.39025452 64.33616638 12.66025452 64.33616638 19.12025452 C49.81616638 19.12025452 35.29616638 19.12025452 20.33616638 19.12025452 C20.33616638 24.07025452 20.33616638 29.02025452 20.33616638 34.12025452 C33.20616638 34.12025452 46.07616638 34.12025452 59.33616638 34.12025452 C59.33616638 39.73025452 59.33616638 45.34025452 59.33616638 51.12025452 C58.33616638 52.12025452 58.33616638 52.12025452 54.73435974 52.23377991 C53.13156782 52.23362077 51.52877078 52.22792515 49.92601013 52.21791077 C49.08397537 52.21649582 48.24194061 52.21508087 47.37438965 52.21362305 C44.67411303 52.20800715 41.97391811 52.195452 39.27366638 52.18275452 C37.4474957 52.17774156 35.62132373 52.1731783 33.79515076 52.16908264 C29.30879096 52.15803256 24.82249254 52.14075731 20.33616638 52.12025452 C20.66616638 57.07025452 20.99616638 62.02025452 21.33616638 67.12025452 C22.66382019 67.1150177 23.991474 67.10978088 25.35935974 67.10438538 C30.26625398 67.08634025 35.17314526 67.0748243 40.08006287 67.06532288 C42.20734652 67.06028153 44.33462669 67.05344861 46.4618988 67.04481506 C49.51244464 67.03274073 52.56294484 67.02702438 55.61351013 67.02259827 C57.04943764 67.01485634 57.04943764 67.01485634 58.51437378 67.00695801 C59.83563011 67.00684471 59.83563011 67.00684471 61.18357849 67.00672913 C61.96301315 67.00450851 62.74244781 67.0022879 63.54550171 67 C65.33616638 67.12025452 65.33616638 67.12025452 66.33616638 68.12025452 C66.43453848 69.45069077 66.46695231 70.78618796 66.46897888 72.12025452 C66.47026794 72.92462952 66.47155701 73.72900452 66.47288513 74.55775452 C66.46901794 75.40337952 66.46515076 76.24900452 66.46116638 77.12025452 C66.46503357 77.96587952 66.46890076 78.81150452 66.47288513 79.68275452 C66.47159607 80.48712952 66.47030701 81.29150452 66.46897888 82.12025452 C66.46785095 82.86275452 66.46672302 83.60525452 66.46556091 84.37025452 C66.33616638 86.12025452 66.33616638 86.12025452 65.33616638 87.12025452 C63.26070686 87.21969304 61.18182846 87.24825047 59.10398865 87.24964905 C58.45356598 87.25140137 57.80314331 87.25315369 57.13301086 87.25495911 C54.97283801 87.25937719 52.81274638 87.25643947 50.65257263 87.25306702 C49.1566364 87.25374015 47.66070027 87.25471026 46.1647644 87.25596619 C43.02486635 87.25744317 39.88499669 87.25528891 36.74510193 87.25062561 C32.71529914 87.24493322 28.68556301 87.2482042 24.65576267 87.25419807 C21.56489559 87.25780788 18.47404436 87.25666308 15.3831768 87.25407028 C13.89718048 87.25340192 12.41118272 87.25422628 10.92518806 87.25654984 C8.8493327 87.25908268 6.77358591 87.25522661 4.69773865 87.24964905 C3.51494827 87.24885345 2.3321579 87.24805786 1.11352539 87.24723816 C-1.66383362 87.12025452 -1.66383362 87.12025452 -3.66383362 86.12025452 C-3.68695645 75.05490594 -3.7047484 63.98956306 -3.71564579 52.92419529 C-3.72087475 47.78665885 -3.72797263 42.64913889 -3.73927307 37.51161194 C-3.75010149 32.55794042 -3.75611035 27.60428478 -3.75871086 22.65060234 C-3.76056519 20.75627835 -3.76418596 18.86195528 -3.76956367 16.96763802 C-3.77677351 14.32391066 -3.77782459 11.68024981 -3.77735901 9.03651428 C-3.78095428 8.24529678 -3.78454956 7.45407928 -3.78825378 6.6388855 C-3.77584491 0.17045449 -3.77584491 0.17045449 0 0 Z " fill="#A1A1B7" transform="translate(385.66383361816406,199.87974548339844)"/>
<path d="M0 0 C-0.48030344 6.48409637 -1.99968316 12.19183947 -5 18 C-5.99 18.495 -5.99 18.495 -7 19 C-8.91885167 18.26588256 -10.81065694 17.4606915 -12.6875 16.625 C-20.83892683 13.38614228 -30.90390543 10.86852233 -39.375 14.375 C-41.83657089 15.76022445 -41.83657089 15.76022445 -43 17 C-43.04080783 18.99958364 -43.04254356 21.00045254 -43 23 C-36.98353036 26.25745848 -31.16571094 28.2670737 -24.5625 30 C-3.08517804 35.66093062 -3.08517804 35.66093062 2.8125 44.8125 C5.45395979 51.90273418 5.4255808 57.89556661 3 65 C-1.35406875 73.37320914 -9.09625037 79.15447177 -18 82 C-34.33049659 85.53473952 -50.96251854 82.92459801 -65.734375 75.5 C-68 74 -68 74 -69 71 C-68.1038147 68.36331336 -67.15217683 65.86620653 -66.0625 63.3125 C-65.77181641 62.61060547 -65.48113281 61.90871094 -65.18164062 61.18554688 C-64.46289687 59.45349225 -63.73254669 57.72626219 -63 56 C-57.74393049 56.86293678 -53.07692213 58.86628363 -48.15625 60.84375 C-43.04463129 62.71632319 -38.50168291 63.17913117 -33.0625 63.25 C-31.87785156 63.27578125 -30.69320312 63.3015625 -29.47265625 63.328125 C-25.6800278 62.96976641 -23.27199456 61.89825639 -20 60 C-19.58219121 57.62694422 -19.58219121 57.62694422 -20 55 C-23.2950762 52.63768723 -26.49434813 51.39614942 -30.38671875 50.3515625 C-31.9190918 49.92617187 -31.9190918 49.92617187 -33.48242188 49.4921875 C-35.59897335 48.91951909 -37.71615131 48.34916054 -39.83398438 47.78125 C-57.45469891 42.87617335 -57.45469891 42.87617335 -63 36 C-63.804375 35.0409375 -63.804375 35.0409375 -64.625 34.0625 C-68.45646573 28.3153014 -68.75558402 22.72654068 -68 16 C-65.42532347 7.37350648 -60.74355157 1.79558531 -52.96875 -2.640625 C-35.87013236 -10.46999203 -16.60005505 -7.53504803 0 0 Z " fill="#A2A2B8" transform="translate(366,205)"/>
<path d="M0 0 C0.84232178 0.00563965 1.68464355 0.0112793 2.55249023 0.01708984 C16.45186258 0.28849373 26.53718004 6.04481656 36.6875 15.3125 C35.08903531 19.56158336 31.8744608 22.13475739 28.5625 25.0625 C27.71751953 25.82240234 27.71751953 25.82240234 26.85546875 26.59765625 C25.47098469 27.84134532 24.07988512 29.07766305 22.6875 30.3125 C21.95144531 29.83039063 21.21539062 29.34828125 20.45703125 28.8515625 C19.48121094 28.21992188 18.50539063 27.58828125 17.5 26.9375 C16.53707031 26.31101562 15.57414062 25.68453125 14.58203125 25.0390625 C7.97703007 21.09923723 2.30334202 20.47396817 -5.3125 21.3125 C-7.63106406 22.1284278 -9.58844443 23.07806666 -11.69140625 24.33984375 C-13.3125 25.3125 -13.3125 25.3125 -16.3125 26.3125 C-17.41418984 28.01019234 -17.41418984 28.01019234 -18.3125 30.3125 C-18.828125 31.323125 -19.34375 32.33375 -19.875 33.375 C-22.98830385 40.84692923 -22.97656864 48.501758 -20.328125 56.0859375 C-17.95690918 61.28437219 -14.48755183 64.7913209 -9.3125 67.3125 C-1.16631446 69.89543688 8.15134125 69.14668603 15.6875 65.3125 C17.84443906 63.75393758 19.72731604 62.12567016 21.6875 60.3125 C24.81422749 61.69072856 26.84552544 63.27495871 29.1875 65.75 C31.55438138 68.1932324 33.86231095 70.39137145 36.6875 72.3125 C33.07695101 80.56260444 24.66885696 85.01164801 16.6875 88.3125 C4.72680262 92.56969737 -9.12149627 91.14208489 -20.703125 86.31640625 C-32.24366403 80.48560943 -40.51018389 71.14875099 -44.9453125 59.0859375 C-46.47559233 54.32419131 -46.81467949 49.91578332 -46.75 44.9375 C-46.74170166 44.10677979 -46.73340332 43.27605957 -46.72485352 42.42016602 C-46.39701754 30.46290312 -41.72880451 21.37675644 -33.7265625 12.56640625 C-24.56944779 3.96765219 -12.34187821 -0.08612616 0 0 Z " fill="#A1A2B8" transform="translate(137.3125,314.6875)"/>
<path d="M0 0 C3.55826429 2.81666211 3.55826429 2.81666211 4.82421875 4.41796875 C4.82421875 8.41796875 4.82421875 8.41796875 3.25 10.19921875 C2.55261719 10.76640625 1.85523437 11.33359375 1.13671875 11.91796875 C0.04810547 12.81708984 0.04810547 12.81708984 -1.0625 13.734375 C-1.75988281 14.28996094 -2.45726563 14.84554687 -3.17578125 15.41796875 C-4.16578125 16.22234375 -5.15578125 17.02671875 -6.17578125 17.85546875 C-6.83578125 18.37109375 -7.49578125 18.88671875 -8.17578125 19.41796875 C-11.72616876 17.71028796 -14.96976504 15.67598691 -18.2734375 13.5390625 C-23.93993315 10.19966979 -30.83163991 10.88461173 -37.17578125 11.41796875 C-40.23950423 12.43305769 -42.40681894 13.69389788 -45.17578125 15.41796875 C-46.16578125 15.74796875 -47.15578125 16.07796875 -48.17578125 16.41796875 C-49.29513198 18.06427068 -49.29513198 18.06427068 -50.17578125 20.41796875 C-50.71203125 21.57296875 -51.24828125 22.72796875 -51.80078125 23.91796875 C-54.3332675 30.89204627 -54.30557125 38.48402972 -51.48828125 45.35546875 C-48.45704869 51.23712351 -44.43081789 55.14340997 -38.17578125 57.41796875 C-30.73563614 58.79970999 -23.97048177 59.07465872 -17.17578125 55.41796875 C-14.66144529 53.58343473 -12.38262051 51.61061612 -10.17578125 49.41796875 C-6.27660157 51.03334319 -3.46284353 53.69721748 -0.42578125 56.54296875 C0.08082031 57.01089844 0.58742188 57.47882813 1.109375 57.9609375 C2.35141016 59.10923416 3.58833369 60.26305547 4.82421875 61.41796875 C1.83442356 68.4675911 -5.23942856 73.36722164 -11.9609375 76.62890625 C-26.37303474 81.76337476 -41.07476587 80.54397874 -54.8828125 74.16796875 C-64.845828 68.78090046 -72.23710524 60.00936643 -76.17578125 49.41796875 C-79.6328991 37.77294019 -79.02711867 25.84894138 -73.95703125 14.75 C-67.30878462 2.83855813 -57.96848599 -4.22888721 -45.1640625 -8.61328125 C-28.48818302 -13.32176487 -13.83525342 -10.05974441 0 0 Z " fill="#A1A2B8" transform="translate(107.17578125,208.58203125)"/>
<path d="M0 0 C4.09905166 3.6569236 6.65647991 6.62591963 8 12 C15.59 12 23.18 12 31 12 C31.66 10.35 32.32 8.7 33 7 C36.65834868 4.56110088 39.01251145 4.50890142 43.375 4.1875 C44.68210937 4.07792969 45.98921875 3.96835937 47.3359375 3.85546875 C51.24649282 4.00972306 52.95519665 4.61091273 56 7 C56.495 7.99 56.495 7.99 57 9 C59.54505341 8.96675108 62.08166732 8.89935637 64.625 8.8125 C65.69427734 8.80379883 65.69427734 8.80379883 66.78515625 8.79492188 C72.57141428 8.55603966 74.74522972 6.83167688 79 3 C83.33226865 1.69786903 87.77293604 1.85511895 92.2578125 1.8671875 C93.04268036 1.86623077 93.82754822 1.86527405 94.63619995 1.86428833 C96.28855469 1.86361013 97.94091215 1.86543922 99.59326172 1.86962891 C102.12343297 1.87499668 104.65342788 1.86966436 107.18359375 1.86328125 C108.79166706 1.86394181 110.39974026 1.86522253 112.0078125 1.8671875 C112.76409943 1.86516327 113.52038635 1.86313904 114.29959106 1.86105347 C117.46725391 1.87522899 119.97227997 1.99075999 123 3 C122.67 4.65 122.34 6.3 122 8 C111.77 8 101.54 8 91 8 C91 8.99 91 9.98 91 11 C101.56 11 112.12 11 123 11 C122 15 122 15 120.33105469 16.23779297 C117.35728439 17.21015481 114.8321462 17.22483157 111.703125 17.1953125 C109.89521484 17.18564453 109.89521484 17.18564453 108.05078125 17.17578125 C106.16939453 17.15064453 106.16939453 17.15064453 104.25 17.125 C102.98027344 17.11597656 101.71054687 17.10695313 100.40234375 17.09765625 C97.26803907 17.07409005 94.13411459 17.04118832 91 17 C91.33 17.66 91.66 18.32 92 19 C92.82725586 18.97905273 93.65451172 18.95810547 94.50683594 18.93652344 C98.2544337 18.85338381 102.00183749 18.80134469 105.75 18.75 C107.05195313 18.71648437 108.35390625 18.68296875 109.6953125 18.6484375 C110.94570313 18.63554687 112.19609375 18.62265625 113.484375 18.609375 C114.63647461 18.58842773 115.78857422 18.56748047 116.97558594 18.54589844 C120.60024715 19.09012429 121.73818439 20.19457206 124 23 C123.67 23.66 123.34 24.32 123 25 C118.25037319 26.14193933 113.46288056 26.19060853 108.6015625 26.23828125 C107.80777191 26.246353 107.01398132 26.25442474 106.19613647 26.26274109 C104.52368306 26.27651134 102.85120238 26.28726474 101.17871094 26.29516602 C99.47973307 26.30669827 97.78079179 26.3271699 96.08203125 26.35668945 C93.60912821 26.39958186 91.13729233 26.41556103 88.6640625 26.42578125 C87.91484528 26.44328934 87.16562805 26.46079742 86.39370728 26.47883606 C81.42345069 26.45866282 78.03508858 25.38163551 73.71395874 22.91954041 C71.49088928 21.72686164 69.50347469 21.40646717 67 21.25 C66.236875 21.19328125 65.47375 21.1365625 64.6875 21.078125 C64.130625 21.05234375 63.57375 21.0265625 63 21 C62.01 18.525 62.01 18.525 61 16 C59.04105639 16.11306697 59.04105639 16.11306697 57 17 C55.53417943 19.19863442 55.53417943 19.19863442 55 22 C56.07957561 24.81164976 56.07957561 24.81164976 58 27.5625 C58.6496875 28.60921875 59.299375 29.6559375 59.96875 30.734375 C60.6390625 31.81203125 61.309375 32.8896875 62 34 C63.20025543 36.08518953 64.36889285 38.18900639 65.5 40.3125 C66.25796875 41.69888672 66.25796875 41.69888672 67.03125 43.11328125 C68.97497051 48.90525487 67.03115782 53.22207829 64.453125 58.46875 C63.39619089 60.48485182 62.32814615 62.49516157 61.25 64.5 C60.7240625 65.50675781 60.198125 66.51351562 59.65625 67.55078125 C56.76770685 73.00612388 53.73068658 78.08102066 50 83 C45.91872354 81.38307424 43.19395226 78.45724119 40.1875 75.375 C39.65487549 74.83593018 39.12225098 74.29686035 38.57348633 73.74145508 C35.10966725 70.21018296 31.78464168 66.59223934 28.60546875 62.80078125 C26.33660946 60.25590501 23.78463299 58.04126163 21.1875 55.8359375 C20 54 20 54 20.26928711 51.23681641 C21.00486666 47.9784423 22.04452026 45.37274141 23.50390625 42.375 C23.99697266 41.33859375 24.49003906 40.3021875 24.99804688 39.234375 C26.04175738 37.07659148 27.08863913 34.92033903 28.13867188 32.765625 C28.87633789 31.21101563 28.87633789 31.21101563 29.62890625 29.625 C30.08338135 28.68914062 30.53785645 27.75328125 31.00610352 26.7890625 C32.33567816 23.55150015 32.33567816 23.55150015 32 18 C24.08 18 16.16 18 8 18 C7.34 19.98 6.68 21.96 6 24 C1.89415089 30.54647768 -2.86736118 32.62245373 -10 35 C-19.95467763 35.86255019 -29.28543961 34.78282491 -37.5 28.6875 C-41.27508588 24.62928268 -42.78640526 20.99355089 -43.375 15.5 C-42.76680779 9.82353938 -41.0718442 5.69907877 -36.9375 1.75 C-26.87345189 -6.10794153 -10.76594483 -6.78763597 0 0 Z M-17 1 C-13 2 -13 2 -13 2 Z M-34 7 C-34.99 8.485 -34.99 8.485 -36 10 C-35.01 10 -34.02 10 -33 10 C-33.33 9.01 -33.66 8.02 -34 7 Z M-32 11 C-31.72425149 14.58473058 -31.47761923 17.26367035 -29.5 20.3125 C-22.16890215 25.26099105 -14.15671759 23.94715221 -5.9375 22.4375 C-4.9784375 22.2209375 -4.9784375 22.2209375 -4 22 C-3.01 23.485 -3.01 23.485 -2 25 C1.27169787 21.41168621 2.90167868 18.91606601 3 14 C2.20486675 11.5038855 1.17862997 9.35725994 0 7 C-0.99 7.99 -1.98 8.98 -3 10 C-3.64066406 9.7834375 -4.28132813 9.566875 -4.94140625 9.34375 C-15.28990017 6.01249115 -21.90218072 7.28585957 -32 11 Z M78.5625 10.375 C77.716875 11.24125 76.87125 12.1075 76 13 C73.1875 14.3125 73.1875 14.3125 71 15 C71 15.33 71 15.66 71 16 C72.093125 16.28875 73.18625 16.5775 74.3125 16.875 C78 18 78 18 81 20 C82.32 20 83.64 20 85 20 C85.19573608 18.56359829 85.38127816 17.12580496 85.5625 15.6875 C85.71912109 14.48673828 85.71912109 14.48673828 85.87890625 13.26171875 C86.14755178 10.83182884 86.14755178 10.83182884 85 8 C80.91028 7.53475685 80.91028 7.53475685 78.5625 10.375 Z M38 10 C35.69328085 12.71549154 35.69328085 12.71549154 36.375 15.1875 C36.58125 15.785625 36.7875 16.38375 37 17 C38.65 15.35 40.3 13.7 42 12 C41.67 11.34 41.34 10.68 41 10 C40.01 10 39.02 10 38 10 Z M48 10 C47.401875 11.0725 46.80375 12.145 46.1875 13.25 C44.62598931 15.98958993 42.97394497 18.53256878 41 21 C46.47773331 20.84188068 46.47773331 20.84188068 51 18.25 C52.15310705 15.65550914 52.23416481 13.80997777 52 11 C50.68 10.67 49.36 10.34 48 10 Z M-37 11 C-36 14 -36 14 -36 14 Z M-37 17 C-36 19 -36 19 -36 19 Z M38 26 C36.70326398 28.53919006 35.41252163 31.08114238 34.125 33.625 C33.76019531 34.33785156 33.39539063 35.05070312 33.01953125 35.78515625 C30.99999073 39.78751837 29.2918889 43.68917073 28 48 C28.71542969 48.39445312 29.43085938 48.78890625 30.16796875 49.1953125 C33.25086021 51.15985851 35.69602513 53.32442154 38.3125 55.875 C39.19550781 56.71804688 40.07851563 57.56109375 40.98828125 58.4296875 C43 61 43 61 43.29296875 63.6328125 C43.14794922 64.80457031 43.14794922 64.80457031 43 66 C42.7763932 68.9254644 42.7763932 68.9254644 44 71 C44.66 71 45.32 71 46 71 C46.66 72.32 47.32 73.64 48 75 C51.51728379 70.50260609 54.07115266 65.58790798 56.75 60.5625 C57.26949219 59.62083984 57.78898437 58.67917969 58.32421875 57.70898438 C58.81019531 56.79568359 59.29617188 55.88238281 59.796875 54.94140625 C60.24385742 54.11326416 60.69083984 53.28512207 61.15136719 52.43188477 C62.39542041 48.86686343 61.62102991 46.46758488 60.18383789 43.07128906 C59.86664795 42.47541992 59.54945801 41.87955078 59.22265625 41.265625 C58.87396484 40.60949219 58.52527344 39.95335937 58.16601562 39.27734375 C57.80185547 38.60832031 57.43769531 37.93929687 57.0625 37.25 C56.70220703 36.56550781 56.34191406 35.88101563 55.97070312 35.17578125 C54.1568583 31.45638322 54.1568583 31.45638322 51 29 C51.93228981 31.87456026 52.85258374 34.68323357 54.12890625 37.42578125 C57.54921298 45.22588671 56.64629641 50.08307173 54 58 C53.58872515 59.57939275 53.19051921 61.16231932 52.8125 62.75 C52.544375 63.8225 52.27625 64.895 52 66 C50.68 65.34 49.36 64.68 48 64 C48.41888008 59.97875125 49.05060025 56.66861173 50.625 52.9375 C52.48866437 48.10304391 51.93123826 45.12674683 49.84375 40.359375 C48.96911602 38.4575546 48.07421254 36.56488326 47.15625 34.68359375 C46.04349276 32.10094433 45.44054194 29.76840557 45 27 C42.69 26.67 40.38 26.34 38 26 Z M46 26 C47.32 26.99 48.64 27.98 50 29 C50 28.01 50 27.02 50 26 C48.68 26 47.36 26 46 26 Z M27 49 C26.67 49.99 26.34 50.98 26 52 C26.99 52.495 26.99 52.495 28 53 C27.67 51.68 27.34 50.36 27 49 Z " fill="#A9A9BB" transform="translate(243,422)"/>
<path d="M0 0 C0.70706085 0.00359528 1.4141217 0.00719055 2.14260864 0.01089478 C3.25473473 0.01067574 3.25473473 0.01067574 4.389328 0.01045227 C6.85130696 0.01115152 9.31321119 0.01894442 11.775177 0.02676392 C13.47768614 0.02862806 15.18019582 0.03005198 16.88270569 0.03105164 C21.37245148 0.03487714 25.86216513 0.0447077 30.35189819 0.05575562 C34.92983566 0.06596903 39.50777831 0.07054911 44.08572388 0.07559204 C53.07467032 0.08632994 62.06359287 0.10340675 71.05252075 0.12442017 C71.08140589 3.2702344 71.09927998 6.41601486 71.11502075 9.56192017 C71.12339966 10.4597522 71.13177856 11.35758423 71.14041138 12.28262329 C71.14363403 13.1366272 71.14685669 13.9906311 71.150177 14.87051392 C71.15541382 15.66127319 71.16065063 16.45203247 71.16604614 17.26675415 C71.05252075 19.12442017 71.05252075 19.12442017 70.05252075 20.12442017 C68.27180829 20.2116824 66.48768935 20.23141058 64.7048645 20.22207642 C63.62527466 20.21885376 62.54568481 20.2156311 61.43338013 20.21231079 C60.29707153 20.20393188 59.16076294 20.19555298 57.99002075 20.18692017 C56.84984497 20.18240845 55.70966919 20.17789673 54.53494263 20.17324829 C51.70741724 20.16141764 48.87999435 20.14493426 46.05252075 20.12442017 C46.04221329 20.94905258 46.03190582 21.773685 46.02128601 22.62330627 C45.92348195 30.37847701 45.82099241 38.1335647 45.7131815 45.88860226 C45.65791603 49.87595233 45.60449039 53.86330968 45.5552063 57.85073853 C45.50761599 61.69573617 45.45527539 65.54064198 45.39958 69.38553047 C45.37913218 70.85558358 45.36042319 72.3256619 45.34344673 73.7957592 C45.31945611 75.84803293 45.28939486 77.90013163 45.25784302 79.95230103 C45.24229874 81.12256332 45.22675446 82.29282562 45.21073914 83.49855042 C45.05252075 86.12442017 45.05252075 86.12442017 44.05252075 87.12442017 C42.42994531 87.22358587 40.80312244 87.25521793 39.17752075 87.25723267 C38.192677 87.25852173 37.20783325 87.25981079 36.19314575 87.26113892 C35.1567395 87.25727173 34.12033325 87.25340454 33.05252075 87.24942017 C31.49791138 87.25522095 31.49791138 87.25522095 29.91189575 87.26113892 C28.927052 87.25984985 27.94220825 87.25856079 26.92752075 87.25723267 C26.01744263 87.25610474 25.1073645 87.25497681 24.16970825 87.2538147 C22.05252075 87.12442017 22.05252075 87.12442017 21.05252075 86.12442017 C20.95834302 84.03822994 20.93509198 81.9488154 20.93899536 79.86050415 C20.93884933 79.2068689 20.93870331 78.55323364 20.93855286 77.87979126 C20.93925192 75.70999888 20.94704398 73.54029137 20.9548645 71.37051392 C20.9567287 69.86978706 20.9581526 68.36905959 20.95915222 66.86833191 C20.96297723 62.9112379 20.97280736 58.95418038 20.9838562 54.99710083 C20.9940707 50.96207167 20.99864992 46.92703664 21.00369263 42.89199829 C21.01442965 34.96945547 21.03150585 27.04694235 21.05252075 19.12442017 C20.11410843 19.2867514 19.17569611 19.44908264 18.20884705 19.61633301 C15.44471984 20.06128622 12.91818748 20.25329749 10.1267395 20.25723267 C9.24824341 20.25852173 8.36974731 20.25981079 7.46463013 20.26113892 C6.11594849 20.25533813 6.11594849 20.25533813 4.74002075 20.24942017 C3.82156372 20.25328735 2.90310669 20.25715454 1.95681763 20.26113892 C1.08476685 20.25984985 0.21271606 20.25856079 -0.6857605 20.25723267 C-1.48022583 20.25610474 -2.27469116 20.25497681 -3.0932312 20.2538147 C-4.94747925 20.12442017 -4.94747925 20.12442017 -5.94747925 19.12442017 C-6.04585135 17.79398392 -6.07826517 16.45848672 -6.08029175 15.12442017 C-6.08158081 14.32004517 -6.08286987 13.51567017 -6.084198 12.68692017 C-6.08033081 11.84129517 -6.07646362 10.99567017 -6.07247925 10.12442017 C-6.07634644 9.27879517 -6.08021362 8.43317017 -6.084198 7.56192017 C-6.08290894 6.75754517 -6.08161987 5.95317017 -6.08029175 5.12442017 C-6.07916382 4.38192017 -6.07803589 3.63942017 -6.07687378 2.87442017 C-5.79855542 -0.88970441 -3.1544634 0.00676652 0 0 Z " fill="#A1A1B8" transform="translate(461.9474792480469,199.87557983398438)"/>
<path d="M0 0 C0.98484375 -0.00128906 1.9696875 -0.00257813 2.984375 -0.00390625 C4.02078125 -0.00003906 5.0571875 0.00382813 6.125 0.0078125 C7.67960938 0.00201172 7.67960938 0.00201172 9.265625 -0.00390625 C10.25046875 -0.00261719 11.2353125 -0.00132812 12.25 0 C13.16007812 0.00112793 14.07015625 0.00225586 15.0078125 0.00341797 C17.125 0.1328125 17.125 0.1328125 18.125 1.1328125 C18.21913687 3.18837911 18.24242998 5.24721431 18.23852539 7.30493164 C18.23867142 7.94881332 18.23881744 8.59269501 18.2389679 9.25608826 C18.23826885 11.39341553 18.23047691 13.53065663 18.22265625 15.66796875 C18.22079204 17.14627535 18.21936815 18.62458257 18.21836853 20.10289001 C18.21454359 24.00080052 18.20471352 27.89867399 18.19366455 31.79656982 C18.18165516 36.46965011 18.17704808 41.14274276 18.17121124 45.81583405 C18.16150174 52.92151932 18.14234505 60.02712326 18.125 67.1328125 C31.985 67.1328125 45.845 67.1328125 60.125 67.1328125 C60.125 73.4028125 60.125 79.6728125 60.125 86.1328125 C58.32237478 87.93543772 55.5812299 87.26049953 53.15234375 87.26220703 C51.87431885 87.26535919 50.59629395 87.26851135 49.27954102 87.27175903 C47.87386033 87.26996925 46.46817995 87.2679183 45.0625 87.265625 C43.63142887 87.26629808 42.20035785 87.26726814 40.76928711 87.26852417 C37.76642776 87.27000094 34.7635981 87.26784726 31.76074219 87.26318359 C27.90347429 87.25748631 24.04627596 87.26076542 20.18901062 87.26675606 C17.23286409 87.27036224 14.27673417 87.26922282 11.32058716 87.26662827 C9.89795931 87.26595915 8.47532997 87.26678687 7.05270386 87.26910782 C5.06768826 87.27163524 3.08266741 87.26710292 1.09765625 87.26220703 C-0.59991821 87.26101364 -0.59991821 87.26101364 -2.33178711 87.25979614 C-4.875 87.1328125 -4.875 87.1328125 -5.875 86.1328125 C-5.97543271 83.49081189 -6.0111685 80.8749266 -6.00439453 78.23242188 C-6.00614685 77.40482864 -6.00789917 76.57723541 -6.00970459 75.7245636 C-6.01412393 72.97520888 -6.01118483 70.22591793 -6.0078125 67.4765625 C-6.00848552 65.57466621 -6.00945552 63.67277001 -6.01071167 61.77087402 C-6.01218875 57.77936995 -6.01003375 53.78788821 -6.00537109 49.79638672 C-5.9996738 44.66790743 -6.00295275 39.53948048 -6.00894356 34.41100311 C-6.01254889 30.48207196 -6.01141072 26.55315332 -6.00881577 22.6242218 C-6.00814642 20.73269138 -6.00897519 18.84115985 -6.01129532 16.94963074 C-6.01382138 14.31079073 -6.00998191 11.67203669 -6.00439453 9.03320312 C-6.00641876 8.24355667 -6.00844299 7.45391022 -6.01052856 6.64033508 C-5.98684098 0.63295225 -5.9772369 0.00740805 0 0 Z " fill="#A3A3B9" transform="translate(128.875,199.8671875)"/>
<path d="M0 0 C6.41494118 4.29691506 10.44347164 10.53353991 12.87109375 17.81640625 C13.76348449 28.24713731 12.41249165 36.57073713 5.93359375 44.94140625 C3.77822011 47.28324988 3.24691568 47.75921596 -0.00390625 48.25390625 C-0.70515625 48.10953125 -1.40640625 47.96515625 -2.12890625 47.81640625 C-2.94140625 46.12890625 -2.94140625 46.12890625 -3.12890625 43.81640625 C-0.87890625 41.37890625 -0.87890625 41.37890625 1.87109375 38.81640625 C5.78457426 33.08595264 6.6270495 27.65194983 5.87109375 20.81640625 C4.11664704 14.05928007 1.79398688 9.57516535 -4.12890625 5.81640625 C-10.21881553 2.70827828 -16.02266248 1.70338152 -22.6796875 3.5078125 C-29.30052595 5.85207974 -32.67028717 8.35890987 -36.08984375 14.55859375 C-38.43949849 19.75370193 -38.2871741 24.55375642 -37.94140625 30.1796875 C-38.12890625 32.81640625 -38.12890625 32.81640625 -39.62890625 34.671875 C-40.12390625 35.04957031 -40.61890625 35.42726562 -41.12890625 35.81640625 C-42.11890625 35.48640625 -43.10890625 35.15640625 -44.12890625 34.81640625 C-46.67866863 27.16711911 -45.87652952 18.37111861 -42.51953125 11.1015625 C-38.01776952 3.7040046 -31.4493751 -1.28872482 -23.1875 -3.765625 C-14.95516302 -5.43708621 -7.280062 -4.04744732 0 0 Z " fill="#A5A5B8" transform="translate(298.12890625,99.18359375)"/>
<path d="M0 0 C1.051875 -0.00515625 2.10375 -0.0103125 3.1875 -0.015625 C6 0.25 6 0.25 9 2.25 C7.35 3.57 5.7 4.89 4 6.25 C3.34 5.92 2.68 5.59 2 5.25 C2.66 7.23 3.32 9.21 4 11.25 C2.68 12.57 1.36 13.89 0 15.25 C1.093125 15.085 2.18625 14.92 3.3125 14.75 C7 14.25 7 14.25 10 14.25 C9.6875 16.125 9.6875 16.125 9 18.25 C8.01 18.91 7.02 19.57 6 20.25 C5.34 19.92 4.68 19.59 4 19.25 C2.45386986 19.33651631 0.91090613 19.49002636 -0.625 19.6875 C-1.85089844 19.84025391 -1.85089844 19.84025391 -3.1015625 19.99609375 C-4.04128906 20.12177734 -4.04128906 20.12177734 -5 20.25 C-5.12375 21.1575 -5.2475 22.065 -5.375 23 C-5.92109677 25.83970323 -6.57263803 27.77590591 -8 30.25 C-8.66 30.25 -9.32 30.25 -10 30.25 C-10.99 32.725 -10.99 32.725 -12 35.25 C-13.125 33.625 -13.125 33.625 -14 31.25 C-13.25 28.375 -13.25 28.375 -12 25.25 C-10.09585792 20.27807346 -10 17.9943395 -10 12.25 C-18.58 12.25 -27.16 12.25 -36 12.25 C-35.67 11.26 -35.34 10.27 -35 9.25 C-27.41 8.92 -19.82 8.59 -12 8.25 C-11.01 6.27 -10.02 4.29 -9 2.25 C-5.53767506 -0.05821663 -4.08201684 -0.02000989 0 0 Z M-4 5.25 C-6.30671915 7.96549154 -6.30671915 7.96549154 -5.625 10.4375 C-5.41875 11.035625 -5.2125 11.63375 -5 12.25 C-3.35 10.6 -1.7 8.95 0 7.25 C-0.33 6.59 -0.66 5.93 -1 5.25 C-1.99 5.25 -2.98 5.25 -4 5.25 Z " fill="#A4A3B6" transform="translate(285,426.75)"/>
<path d="M0 0 C0.99 0.33 1.98 0.66 3 1 C4.19777353 4.04553751 4.12124126 7.07867263 4.11352539 10.31933594 C4.11344986 11.38013367 4.11337433 12.4409314 4.11329651 13.53387451 C4.10813522 14.67253967 4.10297394 15.81120483 4.09765625 16.984375 C4.0962413 18.15510559 4.09482635 19.32583618 4.09336853 20.53204346 C4.0877709 24.27138829 4.0752188 28.01067326 4.0625 31.75 C4.0574847 34.28515539 4.05292184 36.82031171 4.04882812 39.35546875 C4.03780224 45.57033293 4.02106644 51.78516219 4 58 C3.67 58 3.34 58 3 58 C2.20414744 47.312837 1.87174996 36.71600323 2 26 C1.01 26 0.02 26 -1 26 C-0.67 39.86 -0.34 53.72 0 68 C1.98 68 3.96 68 6 68 C5.34 68.99 4.68 69.98 4 71 C3.75849227 73.51584891 3.75849227 73.51584891 3.875 76.1875 C3.90207031 77.53908203 3.90207031 77.53908203 3.9296875 78.91796875 C3.95289063 79.60503906 3.97609375 80.29210937 4 81 C3.01 81.495 3.01 81.495 2 82 C1.67 79.36 1.34 76.72 1 74 C-1.14468649 76.14468649 -0.7395788 80.58444894 -1.0625 83.5625 C-1.15337891 84.36880859 -1.24425781 85.17511719 -1.33789062 86.00585938 C-1.56247449 88.00347377 -1.78173236 90.0016856 -2 92 C-2.33 92 -2.66 92 -3 92 C-3.33 68.57 -3.66 45.14 -4 21 C-5.32 22.32 -6.64 23.64 -8 25 C-10.88437779 23.70700306 -12.87219421 22.34058637 -15 20 C-14.67 19.34 -14.34 18.68 -14 18 C-13.608125 18.515625 -13.21625 19.03125 -12.8125 19.5625 C-11.06726147 21.2524416 -11.06726147 21.2524416 -8.5625 21 C-4.66833201 19.48032468 -2.83236619 16.66473238 -1 13 C-0.34 13 0.32 13 1 13 C1 11.02 1 9.04 1 7 C0.34 8.32 -0.32 9.64 -1 11 C-1.66 11 -2.32 11 -3 11 C-3.36923077 4.6 -3.36923077 4.6 -1.5 1.5625 C-1.005 1.046875 -0.51 0.53125 0 0 Z " fill="#B6B6C8" transform="translate(244,86)"/>
<path d="M0 0 C2.875 0.8125 2.875 0.8125 6 2 C9.76742779 1.70108766 9.76742779 1.70108766 13 1 C13 0.67 13 0.34 13 0 C14.65 0 16.3 0 18 0 C15.93587312 3.09619032 15.20460159 3.54336291 12 5 C11.01 5.66 10.02 6.32 9 7 C7.67432801 7.68177416 6.34246312 8.35191436 5 9 C5.98790131 14.1305352 5.98790131 14.1305352 9.375 17.875 C11.60209955 18.82947123 13.62293198 19.55980222 16 20 C16 20.66 16 21.32 16 22 C16.61488281 21.89300781 17.22976562 21.78601563 17.86328125 21.67578125 C18.67152344 21.55589844 19.47976562 21.43601562 20.3125 21.3125 C21.51326172 21.12107422 21.51326172 21.12107422 22.73828125 20.92578125 C25 21 25 21 26.79296875 22.48046875 C27.19128906 22.98191406 27.58960938 23.48335938 28 24 C24.46588679 26.12046792 21.05606165 26.53199289 17 27 C16.67 26.34 16.34 25.68 16 25 C14.7625 24.896875 13.525 24.79375 12.25 24.6875 C7.70936056 24.23343606 5.94607905 22.51892776 3 19 C2.236875 18.236875 1.47375 17.47375 0.6875 16.6875 C0.130625 16.130625 -0.42625 15.57375 -1 15 C0.20842856 19.43090471 1.51668565 21.98112756 5 25 C3.02 25.33 1.04 25.66 -1 26 C-5.79083787 20.41068915 -7.5313516 16.43892242 -7 9 C-6.14095115 5.64189995 -5.11447088 4.12401011 -2.75 1.5625 C-1.8425 1.046875 -0.935 0.53125 0 0 Z M2 4 C1.01 5.485 1.01 5.485 0 7 C0.99 7 1.98 7 3 7 C2.67 6.01 2.34 5.02 2 4 Z M-1 8 C0 11 0 11 0 11 Z " fill="#A4A4B6" transform="translate(207,425)"/>
<path d="M0 0 C1.65 0 3.3 0 5 0 C5.66 1.32 6.32 2.64 7 4 C19.21 4 31.42 4 44 4 C43.34 4.33 42.68 4.66 42 5 C42 5.99 42 6.98 42 8 C40.02 8 38.04 8 36 8 C36 8.66 36 9.32 36 10 C28.41 10.33 20.82 10.66 13 11 C13.33 12.32 13.66 13.64 14 15 C13.01 15.33 12.02 15.66 11 16 C10.34 15.67 9.68 15.34 9 15 C9 14.34 9 13.68 9 13 C9.66 13 10.32 13 11 13 C9.68 11.02 8.36 9.04 7 7 C6.67 7.99 6.34 8.98 6 10 C5.01 9.67 4.02 9.34 3 9 C1.875 5.5625 1.875 5.5625 1 2 C0.67 1.34 0.34 0.68 0 0 Z " fill="#A1A0B5" transform="translate(254,62)"/>
<path d="M0 0 C1.83203125 0.140625 1.83203125 0.140625 4 1 C5.44921875 3.546875 5.44921875 3.546875 6.6875 6.75 C7.10386719 7.79671875 7.52023437 8.8434375 7.94921875 9.921875 C8.29597656 10.93765625 8.64273437 11.9534375 9 13 C9.27328125 13.76183594 9.5465625 14.52367187 9.828125 15.30859375 C10.10340821 19.61927852 8.51167509 23.29476511 7.0625 27.3125 C6.77181641 28.14845703 6.48113281 28.98441406 6.18164062 29.84570312 C5.46524446 31.90093803 4.73406239 33.95100845 4 36 C2.68 35.67 1.36 35.34 0 35 C-1.22089042 30.7802975 -0.72200994 28.555977 1 24.5625 C2.67646448 20.23501728 3.58176565 17.53439485 2 13 C1.195625 11.453125 1.195625 11.453125 0.375 9.875 C-1 7 -1 7 -0.6875 4.8125 C-0.3471875 3.9153125 -0.3471875 3.9153125 0 3 C0 2.01 0 1.02 0 0 Z " fill="#A7A6B8" transform="translate(291,452)"/>
<path d="M0 0 C2.31 0 4.62 0 7 0 C5.02 0.99 5.02 0.99 3 2 C2.98969254 2.82463242 2.97938507 3.64926483 2.96876526 4.49888611 C2.8709612 12.25405684 2.76847166 20.00914453 2.66066074 27.76418209 C2.60539527 31.75153216 2.55196963 35.73888952 2.50268555 39.72631836 C2.45509524 43.57131601 2.40275464 47.41622182 2.34705925 51.26111031 C2.32661143 52.73116342 2.30790244 54.20124174 2.29092598 55.67133904 C2.26693536 57.72361276 2.2368741 59.77571147 2.20532227 61.82788086 C2.18977798 62.99814316 2.1742337 64.16840546 2.15821838 65.37413025 C2 68 2 68 1 69 C-0.63472882 69.08700342 -2.27314055 69.10701063 -3.91015625 69.09765625 C-4.89951172 69.09443359 -5.88886719 69.09121094 -6.90820312 69.08789062 C-7.94912109 69.07951172 -8.99003906 69.07113281 -10.0625 69.0625 C-11.10728516 69.05798828 -12.15207031 69.05347656 -13.22851562 69.04882812 C-15.8190666 69.03699913 -18.40950559 69.02051689 -21 69 C-20.505 68.01 -20.505 68.01 -20 67 C-13.4 67 -6.8 67 0 67 C0 44.89 0 22.78 0 0 Z " fill="#B1B2C4" transform="translate(505,218)"/>
<path d="M0 0 C0.33 0 0.66 0 1 0 C1 5.61 1 11.22 1 17 C22.78 17 44.56 17 67 17 C67.33 15.68 67.66 14.36 68 13 C68.38218767 14.65614657 68.71395102 16.32457024 69 18 C67.16510821 19.83489179 64.22749337 19.12773894 61.76782227 19.12939453 C61.1173996 19.13114685 60.46697693 19.13289917 59.79684448 19.13470459 C57.63667163 19.13912267 55.47658 19.13618495 53.31640625 19.1328125 C51.82047001 19.13348563 50.32453388 19.13445574 48.82859802 19.13571167 C45.68869997 19.13718865 42.54883031 19.1350344 39.40893555 19.13037109 C35.37913275 19.12467871 31.34939663 19.12794969 27.31959629 19.13394356 C24.22872921 19.13755336 21.13787798 19.13640856 18.04701042 19.13381577 C16.5610141 19.1331474 15.07501634 19.13397176 13.58902168 19.13629532 C11.51316631 19.13882816 9.43741953 19.13497209 7.36157227 19.12939453 C6.17878189 19.12859894 4.99599152 19.12780334 3.77735901 19.12698364 C1 19 1 19 -1 18 C-0.505 9.09 -0.505 9.09 0 0 Z " fill="#D2D2DE" transform="translate(383,268)"/>
<path d="M0 0 C1.32 0.66 2.64 1.32 4 2 C3.42619828 5.66377743 2.02730342 7.32767225 -0.59765625 9.890625 C-1.31630859 10.59960938 -2.03496094 11.30859375 -2.77539062 12.0390625 C-3.53013672 12.76867187 -4.28488281 13.49828125 -5.0625 14.25 C-5.82111328 14.99507812 -6.57972656 15.74015625 -7.36132812 16.5078125 C-9.23432207 18.34546694 -11.11395611 20.17575724 -13 22 C-14.32 21.34 -15.64 20.68 -17 20 C-16.42619828 16.33622257 -15.02730342 14.67232775 -12.40234375 12.109375 C-11.68369141 11.40039062 -10.96503906 10.69140625 -10.22460938 9.9609375 C-9.46986328 9.23132813 -8.71511719 8.50171875 -7.9375 7.75 C-7.17888672 7.00492187 -6.42027344 6.25984375 -5.63867188 5.4921875 C-3.76567793 3.65453306 -1.88604389 1.82424276 0 0 Z " fill="#A3A3B6" transform="translate(286,113)"/>
<path d="M0 0 C0.58007812 0.23589844 1.16015625 0.47179687 1.7578125 0.71484375 C1.7578125 6.81125806 -2.11141161 9.53196798 -6.2421875 13.71484375 C-11.43804003 18.71484375 -11.43804003 18.71484375 -15.2421875 18.71484375 C-15.5721875 17.72484375 -15.9021875 16.73484375 -16.2421875 15.71484375 C-13.66565839 10.85285786 -5.84867485 -0.74382102 0 0 Z " fill="#A3A2B5" transform="translate(295.2421875,121.28515625)"/>
<path d="M0 0 C3 1 3 1 4 2.6875 C4 5.79894589 2.57856481 7.22980766 0.546875 9.47265625 C-1.84066554 11.83005108 -4.36814419 13.91899773 -7 16 C-8.32 15.34 -9.64 14.68 -11 14 C-10.52590352 9.68269587 -7.96603297 7.66352539 -4.9375 4.75 C-4.01839844 3.85796875 -3.09929687 2.9659375 -2.15234375 2.046875 C-1.44207031 1.37140625 -0.73179687 0.6959375 0 0 Z " fill="#A6A4B8" transform="translate(276,107)"/>
<path d="M0 0 C0.66 0.33 1.32 0.66 2 1 C2 1.66 2 2.32 2 3 C2.99 3 3.98 3 5 3 C6.04644066 4.63790712 7.0398183 6.31008021 8 8 C9.29579647 9.36984198 10.61992749 10.7151049 12 12 C11.67 12.66 11.34 13.32 11 14 C10.01 14.33 9.02 14.66 8 15 C7.67 15.66 7.34 16.32 7 17 C3.7 13.7 0.4 10.4 -3 7 C-1 2 -1 2 0 0 Z " fill="#AEADBF" transform="translate(219,87)"/>
<path d="M0 0 C2.0625 0.4375 2.0625 0.4375 4 1 C4.08074203 3.62561109 4.1403623 6.24875676 4.1875 8.875 C4.22520508 9.99455078 4.22520508 9.99455078 4.26367188 11.13671875 C4.29296875 13.3046875 4.29296875 13.3046875 4 17 C3.01 17.66 2.02 18.32 1 19 C-2 17 -2 17 -2.58203125 15.08203125 C-3.11658998 9.81798685 -2.86421711 5.97124563 -1 1 C-0.67 0.67 -0.34 0.34 0 0 Z " fill="#B2B0C1" transform="translate(281,450)"/>
<path d="M0 0 C0.33 0 0.66 0 1 0 C1.33 6.6 1.66 13.2 2 20 C3.98 20 5.96 20 8 20 C7.34 20.99 6.68 21.98 6 23 C5.75849227 25.51584891 5.75849227 25.51584891 5.875 28.1875 C5.89304688 29.08855469 5.91109375 29.98960937 5.9296875 30.91796875 C5.95289063 31.60503906 5.97609375 32.29210937 6 33 C5.01 33.495 5.01 33.495 4 34 C3.67 31.36 3.34 28.72 3 26 C0.85531351 28.14468649 1.2604212 32.58444894 0.9375 35.5625 C0.84662109 36.36880859 0.75574219 37.17511719 0.66210938 38.00585938 C0.43752551 40.00347377 0.21826764 42.0016856 0 44 C-0.33 44 -0.66 44 -1 44 C-1.15760221 29.30797153 -0.67582558 14.67584006 0 0 Z " fill="#C0BFCF" transform="translate(242,134)"/>
<path d="M0 0 C14.52 0 29.04 0 44 0 C45.15866723 4.63466892 44.70010994 7.33260039 44 12 C43.67 12 43.34 12 43 12 C43 8.7 43 5.4 43 2 C41.63234497 2.00785522 41.63234497 2.00785522 40.23706055 2.01586914 C36.80215807 2.03307523 33.36730247 2.04552912 29.93237305 2.05493164 C28.4554776 2.05991084 26.97858695 2.06669663 25.50170898 2.07543945 C16.95224188 2.12472428 8.50453103 2.01214531 0 1 C0 0.67 0 0.34 0 0 Z " fill="#BEBEC8" transform="translate(407,267)"/>
<path d="M0 0 C0 0.99 0 1.98 0 3 C-2.76617563 4.38308781 -5.01018 4.11210196 -8.1015625 4.09765625 C-9.31328125 4.09443359 -10.525 4.09121094 -11.7734375 4.08789062 C-13.04445313 4.07951172 -14.31546875 4.07113281 -15.625 4.0625 C-16.90375 4.05798828 -18.1825 4.05347656 -19.5 4.04882812 C-22.66671292 4.03701203 -25.83333356 4.02053815 -29 4 C-29 3.01 -29 2.02 -29 1 C-24.72920293 0.8323954 -20.45835675 0.66607641 -16.1875 0.5 C-14.97255859 0.45230469 -13.75761719 0.40460938 -12.50585938 0.35546875 C-11.34248047 0.31035156 -10.17910156 0.26523437 -8.98046875 0.21875 C-7.90692139 0.17685547 -6.83337402 0.13496094 -5.72729492 0.09179688 C-3.81903204 0.02756746 -1.90934351 0 0 0 Z " fill="#A2A0B6" transform="translate(365,442)"/>
<path d="M0 0 C0.33 0.66 0.66 1.32 1 2 C6.94 2 12.88 2 19 2 C19.33 3.32 19.66 4.64 20 6 C16.85030499 7.84586777 14.51115326 8.27170838 10.875 8.25 C9.57175781 8.25773437 9.57175781 8.25773437 8.2421875 8.265625 C6 8 6 8 4 6 C2.01612292 4.96838392 0.01723344 3.96476382 -2 3 C-1.34 2.01 -0.68 1.02 0 0 Z " fill="#A0A1B5" transform="translate(270,77)"/>
<path d="M0 0 C3.03685633 0.32537746 3.95633666 0.95236726 6.0625 3.25 C7.84110625 5.77447338 9.46833495 8.31958616 11 11 C9.68 11.33 8.36 11.66 7 12 C8.09655288 13.31886772 9.20253423 14.62990057 10.3125 15.9375 C10.92738281 16.66839844 11.54226563 17.39929688 12.17578125 18.15234375 C13.95975519 20.23820366 13.95975519 20.23820366 17 21 C17.33 20.34 17.66 19.68 18 19 C18.66 19.33 19.32 19.66 20 20 C19.01 21.32 18.02 22.64 17 24 C12.67495164 22.34136495 9.90581175 19.128959 6.75 15.875 C6.19570313 15.31167969 5.64140625 14.74835938 5.0703125 14.16796875 C3.70895515 12.78313972 2.35385141 11.39216796 1 10 C2.32 8.68 3.64 7.36 5 6 C3.27773504 2.75150023 3.27773504 2.75150023 0 2 C0 1.34 0 0.68 0 0 Z " fill="#BDBDCC" transform="translate(276,481)"/>
<path d="M0 0 C0.33 0 0.66 0 1 0 C1.33 1.65 1.66 3.3 2 5 C10.91 4.67 19.82 4.34 29 4 C29.33 5.32 29.66 6.64 30 8 C29.67 7.34 29.34 6.68 29 6 C21.08 6 13.16 6 5 6 C4.34 7.98 3.68 9.96 3 12 C2.34 11.67 1.68 11.34 1 11 C1.66 9.68 2.32 8.36 3 7 C1.35 7.66 -0.3 8.32 -2 9 C-1.125 1.125 -1.125 1.125 0 0 Z " fill="#B2B1C5" transform="translate(246,434)"/>
<path d="M0 0 C3.875 0.875 3.875 0.875 5 2 C7.56695636 1.60508364 9.67123994 1.16438003 12 0 C12 0.66 12 1.32 12 2 C12.99 1.67 13.98 1.34 15 1 C15 1.66 15 2.32 15 3 C14.34 3 13.68 3 13 3 C13 3.66 13 4.32 13 5 C12.01 5 11.02 5 10 5 C10.99 5.33 11.98 5.66 13 6 C13 6.66 13 7.32 13 8 C11.35 8 9.7 8 8 8 C7.67 7.01 7.34 6.02 7 5 C4.69 5 2.38 5 0 5 C-0.33 4.34 -0.66 3.68 -1 3 C-0.67 2.01 -0.34 1.02 0 0 Z " fill="#ADACBF" transform="translate(220,449)"/>
<path d="M0 0 C0.38027344 0.49371094 0.76054687 0.98742187 1.15234375 1.49609375 C3.70201698 3.57140917 5.32750353 3.23911099 8.5625 3.0625 C11.50390625 2.91015625 11.50390625 2.91015625 14 3 C14.66 3.66 15.32 4.32 16 5 C18.57061311 5.64767793 18.57061311 5.64767793 21 6 C21 6.66 21 7.32 21 8 C19.68 8.33 18.36 8.66 17 9 C17 9.66 17 10.32 17 11 C15.68 10.67 14.36 10.34 13 10 C13.33 8.35 13.66 6.7 14 5 C13.15695312 5.02320313 12.31390625 5.04640625 11.4453125 5.0703125 C9.80175781 5.09738281 9.80175781 5.09738281 8.125 5.125 C7.03445313 5.14820313 5.94390625 5.17140625 4.8203125 5.1953125 C2 5 2 5 0 3 C0 2.01 0 1.02 0 0 Z " fill="#B7B7C8" transform="translate(297,428)"/>
<path d="M0 0 C-2.06412688 3.09619032 -2.79539841 3.54336291 -6 5 C-6.99 5.66 -7.98 6.32 -9 7 C-11.0625 7.6875 -11.0625 7.6875 -13 8 C-13.66 7.67 -14.32 7.34 -15 7 C-14.8125 5.125 -14.8125 5.125 -14 3 C-11.6875 1.8125 -11.6875 1.8125 -9 1 C-8.34 0.79375 -7.68 0.5875 -7 0.375 C-4.63552775 -0.06833855 -2.40012712 -0.0666702 0 0 Z " fill="#A2A1B3" transform="translate(225,425)"/>
<path d="M0 0 C0.66 0.33 1.32 0.66 2 1 C2.33 1.99 2.66 2.98 3 4 C3.66 4.33 4.32 4.66 5 5 C5 5.66 5 6.32 5 7 C3.68 7 2.36 7 1 7 C0.67 7.66 0.34 8.32 0 9 C0.99 9.33 1.98 9.66 3 10 C-0.96 10.66 -4.92 11.32 -9 12 C-9 9 -9 9 -7.3125 7.3125 C-4.6402007 5.79578959 -3.02346601 5.7480445 0 6 C0 4.02 0 2.04 0 0 Z " fill="#ABA9BD" transform="translate(284,44)"/>
<path d="M0 0 C0.33 0.99 0.66 1.98 1 3 C1.99 3 2.98 3 4 3 C4.33 2.34 4.66 1.68 5 1 C9.92307692 5.30769231 9.92307692 5.30769231 10.3125 8.8125 C10.1578125 9.8953125 10.1578125 9.8953125 10 11 C9.01 11 8.02 11 7 11 C5.73533952 9.50834918 4.47456633 8.01201855 3.2734375 6.46875 C1.73411413 4.69333409 0.19442123 3.8127486 -2 3 C-2 2.34 -2 1.68 -2 1 C-1.34 0.67 -0.68 0.34 0 0 Z " fill="#AAAABF" transform="translate(277,477)"/>
<path d="M0 0 C2.69082872 0.17635452 5.32851446 0.61835921 8 1 C8 1.66 8 2.32 8 3 C8.66 3 9.32 3 10 3 C10.33 3.99 10.66 4.98 11 6 C10.34 6 9.68 6 9 6 C9 6.66 9 7.32 9 8 C5.97580475 7.41196203 2.98241547 6.77321882 0 6 C-0.38218767 4.34385343 -0.71395102 2.67542976 -1 1 C-0.67 0.67 -0.34 0.34 0 0 Z " fill="#A0A0B5" transform="translate(305,58)"/>
<path d="M0 0 C4.82360189 -0.19294408 8.49646738 0.24252386 13 2 C11.68 3.32 10.36 4.64 9 6 C9 5.01 9 4.02 9 3 C7.68 3.33 6.36 3.66 5 4 C5.66 4.66 6.32 5.32 7 6 C7 6.99 7 7.98 7 9 C6.34 9 5.68 9 5 9 C5 8.01 5 7.02 5 6 C3.68 6.33 2.36 6.66 1 7 C1 6.34 1 5.68 1 5 C0.34 4.67 -0.32 4.34 -1 4 C-0.67 2.68 -0.34 1.36 0 0 Z " fill="#ACACC1" transform="translate(250,59)"/>
<path d="M0 0 C3 1 3 1 4.0625 3.125 C5.12881552 6.39503425 6.0895416 9.6833301 7 13 C6.34 13.66 5.68 14.32 5 15 C2.44015098 12.77404433 1.67674428 11.28704363 1 8 C0.62875 7.154375 0.2575 6.30875 -0.125 5.4375 C-1 3 -1 3 0 0 Z " fill="#A3A1B4" transform="translate(296,445)"/>
<path d="M0 0 C1.65 0 3.3 0 5 0 C5.103125 1.258125 5.20625 2.51625 5.3125 3.8125 C5.64327185 6.44935727 5.81938388 7.74549547 7.375 9.9375 C9.13413918 11.18609823 9.13413918 11.18609823 12 12 C12 12.66 12 13.32 12 14 C8.0623522 12.68745073 5.7341328 11.1247232 3 8 C2.67 7.34 2.34 6.68 2 6 C1.34 6.99 0.68 7.98 0 9 C-0.84454356 5.62182575 -1.10844919 3.32534757 0 0 Z " fill="#B2B2C0" transform="translate(207,432)"/>
<path d="M0 0 C0.33 0.99 0.66 1.98 1 3 C0 4 0 4 -2.13305664 4.11352539 C-3.04949951 4.10828857 -3.96594238 4.10305176 -4.91015625 4.09765625 C-5.89951172 4.09443359 -6.88886719 4.09121094 -7.90820312 4.08789062 C-8.94912109 4.07951172 -9.99003906 4.07113281 -11.0625 4.0625 C-12.10728516 4.05798828 -13.15207031 4.05347656 -14.22851562 4.04882812 C-16.8190666 4.03699913 -19.40950559 4.02051689 -22 4 C-21.67 3.34 -21.34 2.68 -21 2 C-20.39937744 1.97494385 -19.79875488 1.9498877 -19.17993164 1.92407227 C-16.47388563 1.8084472 -13.76821717 1.68557064 -11.0625 1.5625 C-10.11697266 1.52318359 -9.17144531 1.48386719 -8.19726562 1.44335938 C-7.29814453 1.40146484 -6.39902344 1.35957031 -5.47265625 1.31640625 C-4.64000244 1.27974854 -3.80734863 1.24309082 -2.94946289 1.20532227 C-0.99661142 1.20632897 -0.99661142 1.20632897 0 0 Z " fill="#D6D6DF" transform="translate(506,283)"/>
<path d="M0 0 C2 1.375 2 1.375 4 3 C4 3.66 4 4.32 4 5 C3.34 5 2.68 5 2 5 C1.34 6.32 0.68 7.64 0 9 C-0.33 8.34 -0.66 7.68 -1 7 C-2.98 7 -4.96 7 -7 7 C-7.33 6.01 -7.66 5.02 -8 4 C-6.576875 3.566875 -6.576875 3.566875 -5.125 3.125 C-1.94788422 2.23174891 -1.94788422 2.23174891 0 0 Z " fill="#A8A8B9" transform="translate(319,427)"/>
<path d="M0 0 C1.25390625 1.6796875 1.25390625 1.6796875 2.5625 3.875 C2.99691406 4.59429687 3.43132812 5.31359375 3.87890625 6.0546875 C4.62444953 7.34834796 5.33225871 8.66451742 6 10 C3.50638429 8.79618552 1.31856917 7.54571278 -1 6 C-1 6.66 -1 7.32 -1 8 C-1.99 8 -2.98 8 -4 8 C-4.66 6.35 -5.32 4.7 -6 3 C-2.25 0 -2.25 0 0 0 Z " fill="#B4B3C4" transform="translate(261,132)"/>
<path d="M0 0 C3.38115651 -0.29036649 6.62919149 -0.44908891 10 0 C12.625 2.5 12.625 2.5 14 5 C13.01 5.33 12.02 5.66 11 6 C11.33 6.66 11.66 7.32 12 8 C11.67 8.66 11.34 9.32 11 10 C10.34 10 9.68 10 9 10 C8.67 7.36 8.34 4.72 8 2 C5.36 2 2.72 2 0 2 C0 1.34 0 0.68 0 0 Z " fill="#BBBBC8" transform="translate(280,447)"/>
<path d="M0 0 C0.99 0.33 1.98 0.66 3 1 C3 1.66 3 2.32 3 3 C4.65 2.67 6.3 2.34 8 2 C8 3.98 8 5.96 8 8 C7.01 8.495 7.01 8.495 6 9 C5.67 8.01 5.34 7.02 5 6 C1.49705129 4.28432339 1.49705129 4.28432339 -2 3 C-2 2.34 -2 1.68 -2 1 C-1.34 0.67 -0.68 0.34 0 0 Z M8 1 C10.97 1.495 10.97 1.495 14 2 C14 2.66 14 3.32 14 4 C12.02 3.34 10.04 2.68 8 2 C8 1.67 8 1.34 8 1 Z " fill="#B1B0C4" transform="translate(297,56)"/>
<path d="M0 0 C1.4540625 0.0309375 1.4540625 0.0309375 2.9375 0.0625 C1.9475 1.5475 1.9475 1.5475 0.9375 3.0625 C0.69599227 5.57834891 0.69599227 5.57834891 0.8125 8.25 C0.83054688 9.15105469 0.84859375 10.05210937 0.8671875 10.98046875 C0.89039063 11.66753906 0.91359375 12.35460937 0.9375 13.0625 C-0.0525 13.5575 -0.0525 13.5575 -1.0625 14.0625 C-1.3925 11.4225 -1.7225 8.7825 -2.0625 6.0625 C-3.0525 6.5575 -3.0525 6.5575 -4.0625 7.0625 C-4.10504356 5.06295254 -4.10330783 3.06208364 -4.0625 1.0625 C-3.0625 0.0625 -3.0625 0.0625 0 0 Z " fill="#B6B4C5" transform="translate(247.0625,153.9375)"/>
<path d="M0 0 C0.99 0.33 1.98 0.66 3 1 C3.625 3.875 3.625 3.875 4 7 C3.34 7.66 2.68 8.32 2 9 C1.34 8.34 0.68 7.68 0 7 C-0.33 8.32 -0.66 9.64 -1 11 C-1.66 11 -2.32 11 -3 11 C-3.36923077 4.6 -3.36923077 4.6 -1.5 1.5625 C-1.005 1.046875 -0.51 0.53125 0 0 Z " fill="#B4B3C1" transform="translate(244,86)"/>
<path d="M0 0 C2.64 0.99 5.28 1.98 8 3 C7.01 3.33 6.02 3.66 5 4 C5.33 5.32 5.66 6.64 6 8 C3.03 8.66 0.06 9.32 -3 10 C-3.33 9.34 -3.66 8.68 -4 8 C-2.02 7.01 -0.04 6.02 2 5 C1.01 4.34 0.02 3.68 -1 3 C-0.67 2.01 -0.34 1.02 0 0 Z " fill="#B0AFC1" transform="translate(222,421)"/>
<path d="M0 0 C2.88437779 1.29299694 4.87219421 2.65941363 7 5 C6.67 5.99 6.34 6.98 6 8 C5.01 7.67 4.02 7.34 3 7 C2.34 7.66 1.68 8.32 1 9 C-0.5 7.625 -0.5 7.625 -2 6 C-2 4 -2 4 0 2 C0 1.34 0 0.68 0 0 Z " fill="#AFADC0" transform="translate(328,67)"/>
<path d="M0 0 C-0.25 3.375 -0.25 3.375 -1 7 C-3.16923658 8.6094336 -4.31923129 9 -7 9 C-6.51058824 3.49411765 -6.51058824 3.49411765 -4.0625 1.125 C-2 0 -2 0 0 0 Z " fill="#A2A1B3" transform="translate(249,441)"/>
<path d="M0 0 C5.66442374 0.36504064 10.00703705 1.0554321 15 4 C14.67 4.66 14.34 5.32 14 6 C13.17242187 5.50886719 13.17242187 5.50886719 12.328125 5.0078125 C9.61219077 3.83212285 7.69448241 3.79751362 4.75 3.875 C3.41195312 3.90207031 3.41195312 3.90207031 2.046875 3.9296875 C1.37140625 3.95289063 0.6959375 3.97609375 0 4 C0 2.68 0 1.36 0 0 Z " fill="#A8A7BC" transform="translate(228,418)"/>
<path d="M0 0 C0 1.65 0 3.3 0 5 C-4.21878192 5.19622241 -7.17010894 4.80230168 -11 3 C-3.71428571 -1.85714286 -3.71428571 -1.85714286 0 0 Z " fill="#A2A0B5" transform="translate(264,56)"/>
<path d="M0 0 C1.1171875 1.703125 1.1171875 1.703125 2 4 C1.3203125 6.359375 1.3203125 6.359375 0.125 8.75 C-0.45894531 9.94882812 -0.45894531 9.94882812 -1.0546875 11.171875 C-1.36664063 11.77515625 -1.67859375 12.3784375 -2 13 C-2.66 13 -3.32 13 -4 13 C-3.42415568 10.61435923 -2.77772405 8.33317216 -2 6 C-2.99 5.67 -3.98 5.34 -5 5 C-4.34 5 -3.68 5 -3 5 C-3 4.34 -3 3.68 -3 3 C-2.34 3 -1.68 3 -1 3 C-0.67 2.01 -0.34 1.02 0 0 Z " fill="#A1A1B3" transform="translate(308,470)"/>
<path d="M0 0 C1.32 0.33 2.64 0.66 4 1 C4.1875 4.375 4.1875 4.375 4 8 C3.01 8.66 2.02 9.32 1 10 C1 8.68 1 7.36 1 6 C0.34 6 -0.32 6 -1 6 C-1.33 5.01 -1.66 4.02 -2 3 C-1.34 2.01 -0.68 1.02 0 0 Z " fill="#A7A5B8" transform="translate(281,450)"/>
<path d="M0 0 C1.65 1.32 3.3 2.64 5 4 C4.67 5.65 4.34 7.3 4 9 C1.525 8.01 1.525 8.01 -1 7 C-1 3 -1 3 0 0 Z " fill="#A1A0B4" transform="translate(298,100)"/>
<path d="M0 0 C0.598125 0.226875 1.19625 0.45375 1.8125 0.6875 C1.8125 1.3475 1.8125 2.0075 1.8125 2.6875 C1.1525 2.6875 0.4925 2.6875 -0.1875 2.6875 C0.1425 3.6775 0.4725 4.6675 0.8125 5.6875 C0.1525 6.3475 -0.5075 7.0075 -1.1875 7.6875 C-2.1775 7.3575 -3.1675 7.0275 -4.1875 6.6875 C-5.0625 4.8125 -5.0625 4.8125 -5.1875 2.6875 C-3.58493056 0.24147296 -2.95482043 -0.4221172 0 0 Z " fill="#A1A1B3" transform="translate(301.1875,71.3125)"/>
<path d="M0 0 C4 4.75 4 4.75 4 7 C3.34 7 2.68 7 2 7 C2 7.66 2 8.32 2 9 C2.66 9 3.32 9 4 9 C4 9.66 4 10.32 4 11 C0.17053157 9.54744301 -1.12050295 7.57104439 -3 4 C-2.34 4 -1.68 4 -1 4 C-0.67 2.68 -0.34 1.36 0 0 Z " fill="#B1AFC1" transform="translate(261,68)"/>
<path d="M0 0 C1.65 0 3.3 0 5 0 C4.75 1.875 4.75 1.875 4 4 C1.50159405 5.87380446 0.36680834 6.05001932 -2.75 5.625 C-3.4925 5.41875 -4.235 5.2125 -5 5 C-3.68 4.67 -2.36 4.34 -1 4 C-0.67 2.68 -0.34 1.36 0 0 Z " fill="#AAA9BA" transform="translate(361,433)"/>
<path d="M0 0 C0.886875 0.165 1.77375 0.33 2.6875 0.5 C5.53596892 0.92995757 8.13004802 1.08441035 11 1 C11.33 2.32 11.66 3.64 12 5 C8.37 4.34 4.74 3.68 1 3 C0.67 2.01 0.34 1.02 0 0 Z " fill="#A19FB8" transform="translate(216,452)"/>
<path d="M0 0 C1.4540625 0.0309375 1.4540625 0.0309375 2.9375 0.0625 C3.2675 1.0525 3.5975 2.0425 3.9375 3.0625 C1.6275 4.3825 -0.6825 5.7025 -3.0625 7.0625 C-3.44383299 5.0710944 -3.77575582 3.06970923 -4.0625 1.0625 C-3.0625 0.0625 -3.0625 0.0625 0 0 Z " fill="#A1A3B3" transform="translate(308.0625,432.9375)"/>
<path d="M0 0 C1.65 0 3.3 0 5 0 C5 3.77910478 4.00296038 4.46106101 1.5 7.1875 C0.52546875 8.26064453 0.52546875 8.26064453 -0.46875 9.35546875 C-0.9740625 9.89816406 -1.479375 10.44085938 -2 11 C-3 8 -3 8 -2.0625 5.8125 C-1.711875 5.214375 -1.36125 4.61625 -1 4 C-0.34 4 0.32 4 1 4 C1.33 3.34 1.66 2.68 2 2 C1.34 2 0.68 2 0 2 C0 1.34 0 0.68 0 0 Z " fill="#B0B0BB" transform="translate(466,316)"/>
<path d="M0 0 C0.99 0.33 1.98 0.66 3 1 C1.56438314 4.18706942 -0.20266329 6.62169105 -2.5 9.25 C-3.1084375 9.95640625 -3.716875 10.6628125 -4.34375 11.390625 C-6 13 -6 13 -8 13 C-8 12.34 -8 11.68 -8 11 C-7.236875 10.2575 -6.47375 9.515 -5.6875 8.75 C-2.97366049 5.97304795 -1.55797703 3.52594801 0 0 Z " fill="#B7B7C6" transform="translate(295,122)"/>
<path d="M0 0 C1.4540625 0.0309375 1.4540625 0.0309375 2.9375 0.0625 C2.01097299 1.23789996 1.07086613 2.40260577 0.125 3.5625 C-0.39707031 4.2121875 -0.91914063 4.861875 -1.45703125 5.53125 C-3.0625 7.0625 -3.0625 7.0625 -6.0625 7.0625 C-3.83347902 0.07823427 -3.83347902 0.07823427 0 0 Z " fill="#A0A1B2" transform="translate(342.0625,94.9375)"/>
<path d="M0 0 C-0.3125 1.9375 -0.3125 1.9375 -1 4 C-4 5 -4 5 -7 4 C-7 2.68 -7 1.36 -7 0 C-3.98968256 -0.93423645 -3.13349732 -1.04449911 0 0 Z " fill="#B0AFC1" transform="translate(242,428)"/>
<path d="M0 0 C0.99 0 1.98 0 3 0 C3 0.99 3 1.98 3 3 C4.32 3.33 5.64 3.66 7 4 C2.05 6.475 2.05 6.475 -3 9 C-3.66 8.34 -4.32 7.68 -5 7 C-3.35 6.34 -1.7 5.68 0 5 C0 3.35 0 1.7 0 0 Z " fill="#B3B1C3" transform="translate(293,144)"/>
<path d="M0 0 C1.65 0.99 3.3 1.98 5 3 C4.6875 4.9375 4.6875 4.9375 4 7 C3.01 7.33 2.02 7.66 1 8 C0.34 7.67 -0.32 7.34 -1 7 C-0.67 4.69 -0.34 2.38 0 0 Z " fill="#ADABC2" transform="translate(293,97)"/>
<path d="M0 0 C0.66 0.33 1.32 0.66 2 1 C2.33 0.67 2.66 0.34 3 0 C4.99958364 -0.04080783 7.00045254 -0.04254356 9 0 C9 0.99 9 1.98 9 3 C3.58461538 4.23076923 3.58461538 4.23076923 0.625 3.0625 C0.08875 2.711875 -0.4475 2.36125 -1 2 C-0.67 1.34 -0.34 0.68 0 0 Z " fill="#A2A0B8" transform="translate(230,452)"/>
<path d="M0 0 C1.65 0 3.3 0 5 0 C5 0.99 5 1.98 5 3 C6.98 3.66 8.96 4.32 11 5 C7.52128379 6.15957207 6.65780355 5.77456651 3.3125 4.5625 C2.50425781 4.27503906 1.69601562 3.98757812 0.86328125 3.69140625 C0.24839844 3.46324219 -0.36648438 3.23507813 -1 3 C-0.67 2.01 -0.34 1.02 0 0 Z " fill="#ADADBC" transform="translate(347,216)"/>
<path d="M0 0 C0.66 0 1.32 0 2 0 C2 0.99 2 1.98 2 3 C0.68 3.33 -0.64 3.66 -2 4 C-1.34 2.68 -0.68 1.36 0 0 Z M-4 2 C-3.01 3.32 -2.02 4.64 -1 6 C-1.99 6.33 -2.98 6.66 -4 7 C-5.20882096 9.00016466 -5.20882096 9.00016466 -6 11 C-7 8 -7 8 -5.5625 4.8125 C-5.046875 3.884375 -4.53125 2.95625 -4 2 Z " fill="#AFAEBE" transform="translate(286,37)"/>
<path d="M0 0 C0.33 0.66 0.66 1.32 1 2 C0.34 2 -0.32 2 -1 2 C-0.896875 2.763125 -0.79375 3.52625 -0.6875 4.3125 C-0.790625 5.199375 -0.89375 6.08625 -1 7 C-3.5 8.8125 -3.5 8.8125 -6 10 C-7 7 -7 7 -5.8125 4.4375 C-3.97998043 1.97307714 -2.82554579 1.07175875 0 0 Z " fill="#9FA0B1" transform="translate(279,22)"/>
<path d="M0 0 C0.556875 0.144375 1.11375 0.28875 1.6875 0.4375 C4.11384195 1.02769128 6.54906345 1.523429 9 2 C9 2.66 9 3.32 9 4 C4.545 4.495 4.545 4.495 0 5 C-0.33 4.34 -0.66 3.68 -1 3 C-0.67 2.01 -0.34 1.02 0 0 Z " fill="#BAB9CC" transform="translate(220,449)"/>
<path d="M0 0 C0.33 0.66 0.66 1.32 1 2 C1.66 2 2.32 2 3 2 C2.01 4.97 1.02 7.94 0 11 C-0.66 11 -1.32 11 -2 11 C-1.34 7.37 -0.68 3.74 0 0 Z " fill="#ABABBA" transform="translate(181,344)"/>
<path d="M0 0 C0.66 0 1.32 0 2 0 C3.4783226 2.95664519 3.06032783 5.74229737 3 9 C2.01 9.33 1.02 9.66 0 10 C0 6.7 0 3.4 0 0 Z " fill="#B1B1BE" transform="translate(29,238)"/>
<path d="M0 0 C2.0625 2.25 2.0625 2.25 4 5 C3.75 7.3125 3.75 7.3125 3 9 C1.35 9.33 -0.3 9.66 -2 10 C-1.625 8.0625 -1.625 8.0625 -1 6 C-0.34 5.67 0.32 5.34 1 5 C0.67 3.35 0.34 1.7 0 0 Z " fill="#ADAEBF" transform="translate(344,86)"/>
<path d="M0 0 C0.99 0.33 1.98 0.66 3 1 C3.6875 3.0625 3.6875 3.0625 4 5 C2.02 5.99 2.02 5.99 0 7 C-0.99 5.35 -1.98 3.7 -3 2 C-2.01 1.34 -1.02 0.68 0 0 Z " fill="#A1A0B6" transform="translate(325,65)"/>
<path d="M0 0 C2 3 2 3 1.8125 6.0625 C1 9 1 9 -2 11 C-2.33 9.02 -2.66 7.04 -3 5 C-2.34 5 -1.68 5 -1 5 C-0.67 3.35 -0.34 1.7 0 0 Z " fill="#B0B1BE" transform="translate(292,28)"/>
<path d="M0 0 C0.33 0.66 0.66 1.32 1 2 C3.32156597 2.40729228 5.6568787 2.74438677 8 3 C5.53721199 5.46278801 3.29323018 5.99771255 0 7 C-1.125 2.25 -1.125 2.25 0 0 Z " fill="#B0AFC2" transform="translate(264,54)"/>
<path d="M0 0 C2.625 1.4375 2.625 1.4375 5 3 C4.67 4.65 4.34 6.3 4 8 C-0.875 3.25 -0.875 3.25 -2 1 C-1.34 0.67 -0.68 0.34 0 0 Z " fill="#A5A4B5" transform="translate(282,481)"/>
<path d="M0 0 C0.99 0 1.98 0 3 0 C3.33 1.32 3.66 2.64 4 4 C3.34 4 2.68 4 2 4 C1.34 5.65 0.68 7.3 0 9 C-1.125 7.3125 -1.125 7.3125 -2 5 C-1.125 2.25 -1.125 2.25 0 0 Z " fill="#A1A0B3" transform="translate(273,453)"/>
<path d="M0 0 C3.63 0 7.26 0 11 0 C11 0.66 11 1.32 11 2 C4.6 4.21538462 4.6 4.21538462 1.5625 3.125 C1.046875 2.75375 0.53125 2.3825 0 2 C0 1.34 0 0.68 0 0 Z " fill="#BBBCCA" transform="translate(72,267)"/>
<path d="M0 0 C0.33 0 0.66 0 1 0 C1 4.29 1 8.58 1 13 C0.34 13 -0.32 13 -1 13 C-2.42857143 4.57142857 -2.42857143 4.57142857 0 0 Z " fill="#A7A7BB" transform="translate(247,93)"/>
<path d="M0 0 C0.66 0 1.32 0 2 0 C1.67 1.65 1.34 3.3 1 5 C1.99 5.33 2.98 5.66 4 6 C2.35 6.66 0.7 7.32 -1 8 C-1.625 5.6875 -1.625 5.6875 -2 3 C-1.34 2.01 -0.68 1.02 0 0 Z " fill="#A1A0B3" transform="translate(222,83)"/>
<path d="M0 0 C2.4375 0.375 2.4375 0.375 5 1 C5.33 1.66 5.66 2.32 6 3 C5.34 3 4.68 3 4 3 C4 3.66 4 4.32 4 5 C4.66 5 5.32 5 6 5 C5.67 5.99 5.34 6.98 5 8 C0 2.25 0 2.25 0 0 Z " fill="#A2A1B3" transform="translate(282,491)"/>
<path d="M0 0 C2.66735273 2.48952921 4.55746343 4.63408134 6 8 C5.01 8 4.02 8 3 8 C0.75 5.6875 0.75 5.6875 -1 3 C-0.67 2.01 -0.34 1.02 0 0 Z " fill="#B3B2C2" transform="translate(345,339)"/>
<path d="M0 0 C3.875 1.75 3.875 1.75 5 4 C3.1875 5.0625 3.1875 5.0625 1 6 C0.01 5.67 -0.98 5.34 -2 5 C-1.125 1.125 -1.125 1.125 0 0 Z " fill="#AAA9B9" transform="translate(97,258)"/>
<path d="M0 0 C1.65 0.33 3.3 0.66 5 1 C5 2.32 5 3.64 5 5 C4.01 5.33 3.02 5.66 2 6 C1.01 5.34 0.02 4.68 -1 4 C-0.67 2.68 -0.34 1.36 0 0 Z " fill="#A0A0B4" transform="translate(331,73)"/>
<path d="M0 0 C2.875 -0.125 2.875 -0.125 6 0 C6.66 0.66 7.32 1.32 8 2 C7.01 2.495 7.01 2.495 6 3 C5.01 2.67 4.02 2.34 3 2 C3 2.99 3 3.98 3 5 C1.68 4.34 0.36 3.68 -1 3 C-0.67 2.01 -0.34 1.02 0 0 Z " fill="#A29FB3" transform="translate(285,50)"/>
<path d="M0 0 C0.66 0.33 1.32 0.66 2 1 C1.6875 2.875 1.6875 2.875 1 5 C0.01 5.66 -0.98 6.32 -2 7 C-2 3 -2 3 0 0 Z " fill="#A0A0AE" transform="translate(293,440)"/>
<path d="M0 0 C0.763125 0.0825 1.52625 0.165 2.3125 0.25 C1.9825 0.91 1.6525 1.57 1.3125 2.25 C0.3225 2.25 -0.6675 2.25 -1.6875 2.25 C-2.0175 3.57 -2.3475 4.89 -2.6875 6.25 C-3.6775 5.59 -4.6675 4.93 -5.6875 4.25 C-3.34903846 0.31153846 -3.34903846 0.31153846 0 0 Z " fill="#B9B9C5" transform="translate(274.6875,145.75)"/>
<path d="M0 0 C0.66 0 1.32 0 2 0 C1.25 2.875 1.25 2.875 0 6 C-1.98 6.99 -1.98 6.99 -4 8 C-2.68 5.36 -1.36 2.72 0 0 Z " fill="#ABACC0" transform="translate(258,107)"/>
<path d="M0 0 C0.66 0 1.32 0 2 0 C2 1.98 2 3.96 2 6 C3.32 6.33 4.64 6.66 6 7 C4.35 7.33 2.7 7.66 1 8 C-1 5 -1 5 -0.625 2.3125 C-0.41875 1.549375 -0.2125 0.78625 0 0 Z " fill="#AAA9BB" transform="translate(326,102)"/>
<path d="M0 0 C0.99 0.33 1.98 0.66 3 1 C3.33 1.99 3.66 2.98 4 4 C3.01 4 2.02 4 1 4 C-0.70532323 5.94009522 -0.70532323 5.94009522 -2 8 C-1.125 1.125 -1.125 1.125 0 0 Z " fill="#B4B2BE" transform="translate(319,86)"/>
<path d="M0 0 C2.97 0.495 2.97 0.495 6 1 C3.61426621 2.89213369 1.92824652 4.02391783 -1 5 C-0.67 3.35 -0.34 1.7 0 0 Z " fill="#B5B6C3" transform="translate(241,66)"/>
<path d="M0 0 C0.99 0.99 1.98 1.98 3 3 C0 5 0 5 -3 6 C-3.33 4.68 -3.66 3.36 -4 2 C-3.01 2 -2.02 2 -1 2 C-0.67 1.34 -0.34 0.68 0 0 Z " fill="#AEADC1" transform="translate(336,75)"/>
<path d="M0 0 C0 0.66 0 1.32 0 2 C-2.31 2.66 -4.62 3.32 -7 4 C-7.33 3.01 -7.66 2.02 -8 1 C-5.07175348 0.02391783 -3.04386724 -0.08226668 0 0 Z " fill="#B4B4C2" transform="translate(96,283)"/>
<path d="M0 0 C3 1 3 1 4 3 C4.99 3.33 5.98 3.66 7 4 C7 4.99 7 5.98 7 7 C4.13302508 5.71480435 2.02392288 4.42870746 0 2 C0 1.34 0 0.68 0 0 Z " fill="#B1AFBF" transform="translate(229,104)"/>
<path d="M0 0 C-0.33 0.66 -0.66 1.32 -1 2 C-3.3140622 2.73075648 -5.64828869 3.40138258 -8 4 C-8 3.01 -8 2.02 -8 1 C-5.29120665 -0.35439668 -2.99066732 -0.06501451 0 0 Z " fill="#B7B6C6" transform="translate(283,52)"/>
</svg>
